<svg xmlns="http://www.w3.org/2000/svg" xmlns:xlink="http://www.w3.org/1999/xlink" viewBox="0 0 773 946.5"><defs><style>.cls-1,.cls-10{fill:none;}.cls-2,.cls-6,.cls-7{fill:#ececec;}.cls-3{fill:gray;}.cls-4{fill:#cd0707;}.cls-10,.cls-11,.cls-4,.cls-5,.cls-8{stroke:#920000;}.cls-4,.cls-6,.cls-7{stroke-miterlimit:10;}.cls-4,.cls-5,.cls-6{stroke-width:5px;}.cls-5{stroke-linejoin:round;fill:url(#TIJOLINHO);}.cls-6,.cls-7{stroke:#b5b5b5;}.cls-7{stroke-width:2px;}.cls-8{fill:#c10808;stroke-linecap:square;}.cls-10,.cls-11,.cls-8{stroke-width:3px;}.cls-11,.cls-9{fill:#e80c0c;}.cls-12{fill:#4d4d4d;}.cls-13{fill:#fff;}</style><pattern id="TIJOLINHO" data-name="TIJOLINHO" width="100" height="100" patternTransform="translate(0 15.1)" patternUnits="userSpaceOnUse" viewBox="0 0 100 100"><rect class="cls-1" width="100" height="100"/><rect class="cls-2" x="51.5" y="76.5" width="97" height="47"/><path class="cls-3" d="M147,78H53v44h94V78m3-3v50H50V75Z"/><rect class="cls-2" x="-48.5" y="76.5" width="97" height="47"/><path class="cls-3" d="M47,78H-47v44H47V78m3-3v50H-50V75Z"/><rect class="cls-2" x="1.5" y="26.5" width="97" height="47"/><path class="cls-3" d="M97,28H3V72H97V28m3-3V75H0V25Z"/><rect class="cls-2" x="51.5" y="-23.5" width="97" height="47"/><path class="cls-3" d="M147-22H53V22h94V-22m3-3V25H50V-25Z"/><rect class="cls-2" x="-48.5" y="-23.5" width="97" height="47"/><path class="cls-3" d="M47-22H-47V22H47V-22m3-3V25H-50V-25Z"/></pattern></defs><title>CAJAZEIRAS</title><g id="Camada_2" data-name="Camada 2"><g id="Camada_1-2" data-name="Camada 1"><path class="cls-4" d="M636.5,242.11l-7.89,183-7.73,179.09c0,1.11,0,2.22,0,3.31,0,1.3,0,2.59-.08,3.89C617,739.7,513.59,842.55,386.5,842.55S156,739.7,152.22,611.42c0-1.3-.06-2.59-.08-3.89,0-1.09,0-2.2,0-3.31l-7.73-179.09-7.89-183Z"/><path class="cls-5" d="M636.5,242.11,633,324l-4.36,101.19L628.1,437c-53.83-9.25-91.6-30.89-91.6-56.11,0,33.59-67.13,60.83-150,60.89h-.28c-78.65,0-143.19-24.49-149.72-55.67V375.63a25.65,25.65,0,0,0-.54,4.43c0,.26,0,.53,0,.79s0,.53,0,.79c-.78,24.79-38.07,46-91.06,55.22l-.51-11.72L140,324l-3.53-81.92Z"/><path class="cls-6" d="M403.93,614.51H369.07q-4.36,43.5-8.72,87l26.15,26.1,26.15-26.1Q408.3,658,403.93,614.51Z"/><path class="cls-6" d="M360.35,605.81,308,614.51V562.3l52.31,8.7Z"/><path class="cls-6" d="M412.65,605.81l52.31,8.7V562.3L412.65,571Z"/><path class="cls-6" d="M369.07,562.3q-4.36-26.1-8.72-52.21h52.3q-4.35,26.1-8.72,52.21Z"/><rect class="cls-6" x="369.07" y="571" width="34.87" height="34.81"/><path class="cls-7" d="M237,656.24H222.17l-3.72,37,11.14,11.11,11.13-11.11Q238.86,674.75,237,656.24Z"/><path class="cls-7" d="M218.45,652.53l-22.26,3.71V634l22.26,3.7Z"/><path class="cls-7" d="M240.72,652.53,263,656.24V634l-22.27,3.7Z"/><path class="cls-7" d="M222.17,634l-3.72-22.23h22.27Q238.86,622.9,237,634Z"/><rect class="cls-7" x="222.17" y="637.71" width="14.84" height="14.82"/><path class="cls-7" d="M237,518.54H222.17l-3.72,37,11.14,11.12,11.13-11.12Q238.86,537.07,237,518.54Z"/><path class="cls-7" d="M218.45,514.84l-22.26,3.7V496.31L218.45,500Z"/><path class="cls-7" d="M240.72,514.84l22.27,3.7V496.31L240.72,500Z"/><path class="cls-7" d="M222.17,496.31l-3.72-22.22h22.27q-1.86,11.12-3.71,22.22Z"/><rect class="cls-7" x="222.17" y="500.02" width="14.84" height="14.82"/><path class="cls-7" d="M536,656.24h14.84l3.72,37-11.14,11.11-11.13-11.11Q534.14,674.75,536,656.24Z"/><path class="cls-7" d="M554.55,652.53l22.26,3.71V634l-22.26,3.7Z"/><path class="cls-7" d="M532.28,652.53,510,656.24V634l22.27,3.7Z"/><path class="cls-7" d="M550.83,634l3.72-22.23H532.28Q534.14,622.9,536,634Z"/><rect class="cls-7" x="535.99" y="637.71" width="14.84" height="14.82" transform="translate(1086.82 1290.25) rotate(-180)"/><path class="cls-7" d="M536,518.54h14.84l3.72,37L543.41,566.7l-11.13-11.12Q534.14,537.07,536,518.54Z"/><path class="cls-7" d="M554.55,514.84l22.26,3.7V496.31L554.55,500Z"/><path class="cls-7" d="M532.28,514.84,510,518.54V496.31L532.28,500Z"/><path class="cls-7" d="M550.83,496.31l3.72-22.22H532.28q1.86,11.12,3.71,22.22Z"/><rect class="cls-7" x="535.99" y="500.02" width="14.84" height="14.82" transform="translate(1086.82 1014.85) rotate(-180)"/><g id="g10311"><path id="path5071" class="cls-8" d="M705.26,433.5c-20.29-9.73-37.66-21.73-24.51-57.45-7.73,15.32-31,3.36-13,63.84-25.36-7.77-28.83-25.49-28.23-45.05,5.68,22.79-27.58,34.46,22.69,70l18.5,57.07c4.62-1.55,10.12-5.52,12.06-2.64,6.48,9.64,19.53,13,30.54,13,16.21-.28,23.88-7.54,28.64-21.75,5.12-15.8-1.25-32.78-13.15-49C728,446.15,720.51,440.78,705.26,433.5Z"/><path id="rect3186-5-1" class="cls-9" d="M689.06,433.77c-17.81-9.38-22.51-25.69-15.71-42.7-7.73,15.31-10.35-.09,7.74,60.38-25.37-7.76-37.45-11.69-42-32.11,1.79,22.78,14.68,35.32,39.94,44.12l7.28,48.45c4.63-1.55,3.22.52,11.2-6.08,9.9,17.47,30,20.64,36,14.66,23.55-23.38,14.45-38.81-8-64-8.27-11.35-25.3-16.92-36.35-22.69Z"/><path id="path5073" class="cls-8" d="M694.18,448.52c-9.82,6.86-19.55,17.55-31.6,17.36-14.89-.24-24.83,11.66-35.55,19.33-4.32,60,13.56,96.5,47.41,116L700,697.7c30.33,61.52,100.21,20.36,58.64-53.23L717.73,572.2c-66.8-54.11-31.47-99.93-23.55-123.68Z"/><path id="rect3183-4-5" class="cls-9" d="M680.79,462.08c-9.82,6.86-6.61,8.93-18.66,8.73-14.89-.23-16.21,7.36-26.93,15-4.32,60,18.73,93.06,52.59,112.57l10,87c34.69,71.11,95.25,32,53.46-42l-40-68C644.44,521.3,672.87,485.82,680.79,462.08Z"/><path id="rect3186" class="cls-8" d="M73.69,430.82c17.8-9.38,31.13-22.24,19.16-54.77,7.73,15.32,31,3.36,13,63.84,25.37-7.77,28.83-25.49,28.23-45.05-1.79,22.79,27.59,34.46-22.69,70L92.85,521.89c-4.63-1.55-10.12-5.52-12.06-2.64-11.22,16.66-42,14.61-48.05,8.64-23.54-23.39-11.86-51.74,10.63-77,8.27-11.36,19.27-14.34,30.32-20.11Z"/><path id="rect3186-5" class="cls-9" d="M85.36,433.84c17.8-9.39,22.51-25.69,15.71-42.71,7.73,15.32,10.34-.08-7.75,60.39,25.37-7.77,37.46-11.69,42-32.12-1.79,22.79-14.67,35.32-39.93,44.13L88.13,512c-4.62-1.55-3.22.51-11.2-6.09C67,523.37,47,526.53,41,520.56c-23.54-23.39-14.44-38.81,8-64,8.27-11.35,25.31-16.92,36.36-22.69Z"/><path id="rect3183" class="cls-8" d="M79.42,448.52C89.23,455.38,99,466.07,111,465.88c14.89-.24,24.83,11.66,35.55,19.33,4.32,60-13.55,96.5-47.41,116L73.6,697.7C38.9,768.81-26.83,718.52,15,644.47l40.9-72.27c66.8-54.11,31.47-99.93,23.56-123.68Z"/><path id="rect3183-4" class="cls-9" d="M92.81,466.27c9.81,6.86,6.61,8.93,18.66,8.74,14.89-.24,16.21,7.35,26.93,15,4.32,60-18.73,93.06-52.59,112.56l-10,87c-34.7,71.11-95.25,32-53.47-42l40-67.95c66.8-54.11,38.38-89.59,30.46-113.34Z"/><g id="g3262"><path id="path3219" class="cls-10" d="M96,596.55,117.58,577"/><path id="path2398" class="cls-10" d="M38.66,511.45,53.7,527"/><path id="path3170" class="cls-10" d="M43.25,510.82l15,15.5"/><path id="path4903" class="cls-10" d="M88.57,592.75l21.62-19.54"/><path id="path4905" class="cls-10" d="M81.63,591.4l21.62-19.53"/><path id="path4907" class="cls-10" d="M76.26,589.61l21.62-19.53"/><path id="path4909" class="cls-10" d="M68.87,588.5,90.5,569"/><path id="path4911" class="cls-10" d="M60.2,589.38l21.62-19.54"/><path id="path4913" class="cls-10" d="M46.91,589.79l21.62-19.54"/><path id="path4915" class="cls-10" d="M49.63,583l12.72-12.12"/><path id="path4919" class="cls-10" d="M52.09,590.06l21.62-19.53"/></g><g id="g3257"><path id="path3191" class="cls-10" d="M42.42,676.87,12.26,700.54"/><path id="path3203" class="cls-10" d="M24.59,672.52l6.3-11.84"/><path id="path3205" class="cls-10" d="M33.29,681.89l5.83-10.19"/><path id="path3226" class="cls-10" d="M25.47,728.77l-4-14.14"/><path id="path3228" class="cls-10" d="M28.6,728.53l-4-14.14"/><path id="path3230" class="cls-10" d="M32.63,729.25l-4-15.58"/><path id="path3232" class="cls-10" d="M36.8,727.58l-4-14.15"/><path id="path3234" class="cls-10" d="M41.58,725.66l-4-14.15"/><path id="path3236" class="cls-10" d="M19.53,672.52l7.88-17.26"/><path id="path3238" class="cls-10" d="M29.34,674.22l7.88-13.87"/></g><g id="g5053"><path id="path3189" class="cls-11" d="M29.28,508.47l50.81-59.28"/><g id="g3273"><path id="path3172" class="cls-11" d="M46.1,507.82l15,15.5"/><path id="path3174" class="cls-11" d="M54.43,507.08l12.25,11.49"/><path id="path3176" class="cls-11" d="M62.25,465.74l17.88-15.18"/><path id="path3178" class="cls-11" d="M67,472.7l17.89-15.81"/><path id="path3180" class="cls-11" d="M72.85,474.44l13.93-13"/><path id="path3182" class="cls-11" d="M80.13,474.44l7.31-7.55"/><path id="path3184" class="cls-11" d="M93.58,468.91l8.58,17.75"/><path id="path3186" class="cls-11" d="M101.18,468.91l8.57,17.75"/><path id="path3188" class="cls-11" d="M111.94,473.81l3.19,16.8"/><path id="path3190" class="cls-11" d="M120.17,478.87l3.19,16.8"/><path id="path3192" class="cls-11" d="M126.34,480.3l3.2,16.8"/><path id="path3194" class="cls-11" d="M131.72,481.25l3.51,18.54"/><path id="path3196" class="cls-11" d="M138.21,483.93l3.2,16.81"/></g></g><g id="g5097"><path id="path5099" class="cls-10" d="M677.64,596.55,656,577"/><path id="path5101" class="cls-10" d="M734.93,511.45l-15,15.51"/><path id="path5103" class="cls-10" d="M730.34,510.82l-15,15.5"/><path id="path5105" class="cls-10" d="M685,592.75,663.4,573.21"/><path id="path5107" class="cls-10" d="M692,591.4l-21.62-19.53"/><path id="path5109" class="cls-10" d="M697.33,589.61l-21.62-19.53"/><path id="path5111" class="cls-10" d="M704.72,588.5,683.1,569"/><path id="path5113" class="cls-10" d="M713.39,589.38l-21.62-19.54"/><path id="path5115" class="cls-10" d="M726.69,589.79l-21.63-19.54"/><path id="path5117" class="cls-10" d="M724,583l-12.71-12.12"/><path id="path5119" class="cls-10" d="M721.51,590.06l-21.63-19.53"/></g><g id="g5121"><path id="path5123" class="cls-10" d="M744.31,508.47,693.5,449.19"/><g id="g5125"><path id="path5127" class="cls-10" d="M727.49,507.82l-15,15.5"/><path id="path5129" class="cls-10" d="M719.16,507.08l-12.24,11.49"/><path id="path5131" class="cls-10" d="M711.35,465.74l-17.89-15.18"/><path id="path5133" class="cls-10" d="M706.6,472.7l-17.88-15.81"/><path id="path5135" class="cls-10" d="M700.74,474.44l-13.92-13"/><path id="path5137" class="cls-10" d="M693.46,474.44l-7.31-7.55"/><path id="path5139" class="cls-10" d="M680,468.91l-8.57,17.75"/><path id="path5141" class="cls-10" d="M672.41,468.91l-8.57,17.75"/><path id="path5143" class="cls-10" d="M661.65,473.81l-3.19,16.8"/><path id="path5145" class="cls-10" d="M653.42,478.87l-3.19,16.8"/><path id="path5147" class="cls-10" d="M647.25,480.3l-3.19,16.8"/><path id="path5149" class="cls-10" d="M641.87,481.25l-3.51,18.54"/><path id="path5151" class="cls-10" d="M635.38,483.93l-3.19,16.81"/></g></g><g id="g5075"><path id="path5077" class="cls-10" d="M731.15,674.28l30.17,22.08"/><path id="path5079" class="cls-10" d="M749,670.22l-6.31-11"/><path id="path5081" class="cls-10" d="M740.29,679l-5.84-9.5"/><path id="path5083" class="cls-10" d="M748.11,722.71l4-13.2"/><path id="path5085" class="cls-10" d="M745,722.48l4-13.19"/><path id="path5087" class="cls-10" d="M740.94,723.15l4-14.53"/><path id="path5089" class="cls-10" d="M736.78,721.59l4-13.2"/><path id="path5091" class="cls-10" d="M732,719.8l4-13.2"/><path id="path5093" class="cls-10" d="M754.05,670.22l-7.88-16.1"/><path id="path5095" class="cls-10" d="M744.24,671.81l-7.89-12.94"/></g><path id="path2384" class="cls-8" d="M653.49,614.14c-15.51,142.76-122.75,243-263.92,243-158.88,0-249.07-104.82-270.36-242-1-6.25-18.69-17.47-37.86-27.15C61.5,578.12,30,563.5,13.19,575.56,6.5,580.72,1.47,591.67,2.51,614.65c.28,6.2,3.53,16,13.64,25.65,17,16.11,31.67,40.58,32.77,44.78C53.05,701,61,714.94,66.07,731.71,103.47,855,232.31,944.26,385.36,945c162.06.77,291.64-97.63,322.14-216.59,4.52-17.6,23.73-56.32,23.46-56.67,19.84-21.45,40-44.56,40.22-61.76.32-33.47-17.41-44.45-37.77-38.34-32.64,9.81-79.1,35-79.92,42.5Z"/><path id="path2384-2" class="cls-9" d="M658.9,624.08c-15.52,142.75-121,239-262.2,240.44-171.82,1.72-266.32-104-287.61-241.12-1-6.25-8.34-14-27.51-23.71-19.86-9.91-46.16-24.54-63-12.47-6.69,5.15-2.23-2.85-1.19,20.12.28,6.2,4.39,10,14.5,19.62,17,16.11,25.63,50.06,26.73,54.27,4.14,15.87,10.14,34.52,16.3,50.94,46.88,125,155.89,202.2,308.94,202.93,162,.78,284.73-105.37,316.1-208.82,23.28-52.77,30.86-89.86,52.46-118.44,20.61-26.38-7.06-31.52-27.42-25.4C692.37,592.24,659.71,616.57,658.9,624.08Z"/><g id="g5153"><path id="path5155" class="cls-10" d="M728.63,676.63l35.78-69.57"/><g id="g5157"><path id="path5159" class="cls-10" d="M750,603.79l-7.77-27.43"/><path id="path5161" class="cls-10" d="M744.31,599.15,736,578.49"/><path id="path5163" class="cls-10" d="M737.32,595.66l-5.1-13.86"/><path id="path5165" class="cls-10" d="M758.83,670.25l-8.71-20.87"/><path id="path5167" class="cls-10" d="M756.07,604.27,751,577.16"/></g></g><g id="g3362"><path id="path3193" class="cls-10" d="M44.54,676.63,9.18,607.06"/><g id="g3251"><path id="path3195" class="cls-10" d="M23.63,603.79l7.76-27.43"/><path id="path3197" class="cls-10" d="M29.28,599.15l8.35-20.66"/><path id="path3199" class="cls-10" d="M36.27,595.66l5.11-13.86"/><path id="path3201" class="cls-10" d="M14.77,670.25l8.7-20.87"/><path id="path3240" class="cls-10" d="M17.52,604.27l5.09-27.11"/></g></g><g id="g5499"><path id="path5483" class="cls-10" d="M93.77,595.28l4.63,15"/><path id="path5485" class="cls-10" d="M86.47,591.16l5.45,17.07"/><path id="path5487" class="cls-10" d="M79.93,587.18l6.55,19.92"/><path id="path5489" class="cls-10" d="M73.22,584.86l6.55,19.92"/><path id="path5491" class="cls-10" d="M66.6,580.87l6.55,19.92"/><path id="path5493" class="cls-10" d="M56.86,577.78l5.6,17.44"/><path id="path5497" class="cls-10" d="M60.32,577.22l6.55,19.92"/></g><g id="g5521"><path id="path5523" class="cls-10" d="M681,595.28l-4.63,15"/><path id="path5525" class="cls-10" d="M688.26,591.16l-5.46,17.07"/><path id="path5527" class="cls-10" d="M694.79,587.18l-6.55,19.92"/><path id="path5529" class="cls-10" d="M701.51,584.86,695,604.78"/><path id="path5531" class="cls-10" d="M708.13,580.87l-6.55,19.92"/><path id="path5533" class="cls-10" d="M717.87,577.78l-5.6,17.44"/><path id="path5535" class="cls-10" d="M714.4,577.22l-6.54,19.92"/></g><path class="cls-2" d="M64.2,677.57,67.73,684l.5,1.37L70,693.29l-2.74,1-5.76-15.72Zm51.07,4.56,1.5,4.1L76.16,718.75l-2.32-6.35L110,683.74l.57,1.58-46.24,1-1.18-3.22ZM73.66,703.4l4.18,8.24.5,1.37,2.07,8.85-2.75,1L70.91,704.4Zm10.52-19.06,6.75,18.45L88.18,705l-7.56-20.64Z"/><path class="cls-2" d="M89.55,737,86,738.89l-4.86-9,2.57-1.38,5.48,7.8Zm18.06-13.41c6.62-3.56,13.32-7.15,19.84-10.9l3.33,6.15c-6.6,3.29-13.29,6.88-20,10.51l-2.25,1.21c-7.59,4.07-14.28,7.67-20.81,11.41l-3.33-6.14c6.6-3.3,13.3-6.89,20-10.52Zm2.14,2.57,3.43,6.34c4.27,7.87,8.62,9.92,14.54,6.74s6.14-7.67,2.56-14.27l-4.13-7.62,3-1.59,5.14,9.48c4.75,8.77,3.15,16.24-3,19.56-5,2.69-11.33,1.62-17-6.35l.58-.31c4.58,10.44,2.29,17-3.24,19.93-5.85,3.14-14.38,1.51-20.93-10.59L86,738.89l3-1.59,3.81,7.05c4.51,8.32,9.85,10.66,15.51,7.62,6-3.21,6.9-8.74,2-17.7l-3.54-6.53Zm11.93-18,2.58-1.38,4.85,9-3.53,1.9-.35-.64Z"/><path class="cls-2" d="M126.23,794.23l5,8.13-2.3,1.79-12.59-16.06,2.3-1.79,6.71,6.78Zm15.11-16.81c5.93-4.61,11.93-9.26,17.73-14l4.31,5.5c-5.95,4.35-11.94,9-18,13.71l-2.88,2.23c-5.93,4.61-11.93,9.27-17.73,14l-4.32-5.5c6-4.35,12-9,18-13.71Zm11.28-17.53,2.31-1.79,12.59,16.06-2.3,1.79-6.71-6.79-.9-1.14Z"/><path class="cls-2" d="M137.14,811l6.31,4.48,1.06,1,4.43,5.71-2,2.11-11.8-11.19Zm36.52-28.67,2.23,2.11-14.55,16.15L142.58,820.2l-2.7-2.56Zm.06,0,4.71,4.47-17.28,43.9-1.8-1.71,42.53-20,2.8,2.66L157.09,834l-2.6-2.46Zm-7.63,56.07,7.11,5.23,1.06,1,6.12,7.32-2,2.1-14.3-13.54Zm2.81-60.64,7,6.63-2.78,2.89-.63-.6-5.6-6.81Zm15.41,50.78,18.15-19,4.82,4.56c-5.26,5.17-10.5,10.65-15.79,16.18L189,833c-5.2,5.42-10.44,10.9-15.47,16.48l-5-4.72C173.77,839.62,179,834.14,184.31,828.61Zm20.43-16.81,7.41,7-2,2.11-7.64-5.74-.53-.5Z"/><path class="cls-2" d="M199.26,863.13l7.14,6.34-1.68,2.38L188,860.13l1.68-2.38,8.41,4.55Zm9.53-20.45c4.33-6.13,8.7-12.32,12.85-18.58l5.74,4c-4.42,5.88-8.79,12.07-13.21,18.32l-2.1,3c-4.33,6.13-8.7,12.32-12.85,18.58l-5.75-4c4.43-5.89,8.8-12.08,13.22-18.33Zm5.67-20,1.68-2.38L232.89,832l-1.68,2.38-8.41-4.55-1.2-.83Z"/><path class="cls-2" d="M240.47,879.5c2.31-4.13.86-7.35-3.49-12.6l-1.89-2.3c-5.09-6.15-7.49-12.32-3.86-18.8,4.09-7.31,12.78-8.32,20.89-3.82a19.35,19.35,0,0,1,8.52,9.15l-5,8-3.83-2.12,3.58-10.59,2.92,4.36L256.51,854c-1.41-4.78-3.17-7.18-6.56-9-5-2.77-10.13-2.38-12.8,2.39-2.24,4-.94,7.8,2.72,12.17l2,2.33c6.61,7.92,7.8,13.42,4.45,19.39-4.2,7.5-13.08,8.56-21.83,3.71A27.93,27.93,0,0,1,214,874.7l5.37-8.69,3.83,2.13-3.82,10.71-3.16-4.09,1.71-3c2.36,5.06,3.82,7.54,8.16,9.95C232.1,885,237.69,884.46,240.47,879.5Z"/><path class="cls-2" d="M278.39,903.93l8.67,4-.92,2.76-19.42-6.43.92-2.76,9.36,2Zm3.22-22.32c2.37-7.11,4.77-14.29,6.94-21.47l6.65,2.2c-2.53,6.91-4.93,14.09-7.35,21.33L287,886.3c-2.65,7.94-5,15.12-7.21,22.3l-6.66-2.21c2.54-6.9,4.93-14.08,7.35-21.33Zm-.37-20.82.92-2.76,9.71,3.21-1.26,3.8-.7-.23ZM300,890.84l-16.23-5.37,1.06-3.17,16.24,5.37Zm11.08-23.24,2,4.48-22.34-7.39,1.15-3.45,24.77,8.19L313,881.88l-3.88-1.28Zm-12.46,20,3.48-7,3.12,1-5.69,17.05-3.12-1,1.51-8Z"/><path class="cls-2" d="M318.84,873.39l.47-2.88,20.21,3.24-.47,2.87-9.55-.42-1.45-.23Zm18,45.25c8.3,1.33,13.24-2.66,15.32-15.52l4.31-26.65,3.61.57-4.61,28.52c-2.44,15.09-10.71,19.51-20.45,18-10.47-1.67-16.6-8.63-14.44-22l1.25-7.76c1.2-7.39,2.41-14.87,3.39-22.3l6.93,1.11c-1.39,7.22-2.6,14.69-3.82,22.24l-.92,5.67C325.42,912.83,329.49,917.47,336.85,918.64Zm19.5-38.14-7.77-2.35.47-2.87,17.32,2.77-.47,2.87-8.11-.19Z"/><path class="cls-2" d="M372.72,880.34l4.57,1.65-8.79-.91-.06-2.91,11-.22,31.16,40.93.16,7.71-2.34,0ZM369,924l7.65-1.25,1.46,0,8.43.92.06,2.91-17.54.35Zm5.3-46,3.71,2.84.92,45.82-3.66.07Zm24.11-.48,17.54-.35.06,2.91-7.29,1.24-1.46,0-8.79-.92Zm7.68-.15,3.65-.07,1,49.24L407,923Z"/><path class="cls-2" d="M419,879.69l-.57-2.86,10-2,.79,3.92-.72.15Zm10.67,17.91c-1.47-7.35-3-14.77-4.65-22.08l6.88-1.36c1.23,7.24,2.72,14.66,4.23,22.16l.54,2.71c1.64,8.2,3.13,15.62,4.82,22.93l-6.88,1.36c-1.23-7.24-2.72-14.66-4.39-23Zm7.59,21.12.79,3.92-10,2-.57-2.85,9.11-2.92Zm.13.64,9.25-1.84c11.25-2.23,15.9-11,13.3-24C457.19,880,449.58,874.05,439,876.16l-9.89,2-.66-3.28,11.11-2.21c13.63-2.7,24.78,3.84,27.89,19.39s-5.83,25.94-19.73,28.7L438,922.64Z"/><path class="cls-2" d="M475.39,912l6.49-3.52,1.38-.5,7.93-1.72,1,2.74-15.79,5.73Zm4.55-50.83,4.12-1.49,32.71,40.39-6.39,2.32-28.81-35.92,1.58-.58,1,46-3.22,1.17Zm2.24,30.94,18.54-6.73,2.25,2.74-20.73,7.53Zm19.17,10.46,8.28-4.16L511,898l8.89-2.07,1,2.73-18.54,6.74Z"/><path class="cls-2" d="M504.17,853.43l8.3-4.89,2,3.44-.76.44-8.1,3.51Zm5.66-3.34,2.64-1.55,11.66,18.32L538,890.15,534.77,892Zm.06,0,5.6-3.3,37.75,28.49-2.14,1.26-7.74-46.16,3.33-2L555.22,880l-3.09,1.82Zm17.73,42.81,6-4.83,1.25-.74,6.73-2.69,1.49,2.5-14,8.27Zm29.83-40.39-13.4-22.54,5.73-3.37c3.57,6.43,7.44,12.94,11.35,19.52l1.86,3.13c3.83,6.45,7.7,13,11.73,19.3L568.8,872C565.23,865.56,561.36,859.05,557.45,852.48Zm-10.69-24.14,8.8-5.18,1.49,2.5-7.62,5.76-.63.37ZM562,872.61l7-5.39,1.26-.74L579,862.6l1.48,2.51-17,10Z"/><path class="cls-2" d="M559.84,822.5l-1.91-2.21,7.76-6.64,2.62,3-.55.47ZM578,832.89c-4.91-5.68-9.87-11.42-14.94-17l5.32-4.55c4.65,5.71,9.6,11.45,14.61,17.25l1.81,2.09c5.47,6.35,10.43,12.09,15.5,17.63L595,852.9c-4.65-5.71-9.6-11.45-14.6-17.25Zm3.08-32.37,4.88.63-17.86,15.26-2.38-2.76,19.8-16.92,8.86,9.49-3.1,2.65Zm13.89,21.79L582.41,833l-2.19-2.54,12.53-10.71Zm-3.49-.47-4.21-6.56,2.49-2.13L601,826.22l-2.49,2.14-6.12-5.42ZM595,847.59l2.62,3-7.76,6.63-1.91-2.2,6.5-7Zm15.43-25,8.09,10.15-20.9,17.88-2.38-2.76,19-16.22-.11,4.89-6.76-11.29Z"/><path class="cls-2" d="M593.91,791.68l4.28-2.3-6.53,5.94-2.23-1.89,7.12-8.3,51.45,4,5.89,5-1.51,1.77Zm-.68-2.68,4.6-.88,35,29.76-2.37,2.77Zm15.66-18.26,11.39-13.29,2.23,1.89-3.92,6.24-.94,1.11-6.53,5.94Zm5-5.82,2.37-2.76,37.64,32-5.15.41Zm10.35,58.54,4.15-6.52,1-1.11,6.29-5.65,2.22,1.89-11.39,13.28Z"/><path class="cls-2" d="M625.87,755.14l-1.39-4.69,9.85,8.78-2.15,3.46-10.77-7.29,21-33.81,11.38,6.31-2.15,3.47-12.3-4.82,4.84-.88Zm23.58-2c-6.41-3.94-12.88-7.91-19.4-11.66l3.68-6c6.17,4.05,12.64,8,19.17,12l3.12,1.91c6.4,3.94,12.87,7.91,19.4,11.66l-3.69,5.94c-6.17-4-12.64-8-19.17-12Zm21.09,8.24,6.3-8.09,2.49,1.53-11.51,18.57-2.49-1.53,4.44-9.24Z"/><path class="cls-2" d="M646.14,719.63l-2.64-1.24L652.24,700l2.65,1.24-3.07,9-.62,1.31ZM667,721.77c-6.81-3.2-13.69-6.43-20.59-9.44l3-6.31c6.58,3.34,13.46,6.57,20.4,9.83l3.3,1.56c6.81,3.2,13.68,6.43,20.58,9.44l-3,6.31c-6.59-3.34-13.46-6.57-20.4-9.83Zm21.87,5.87,5-8.09,2.65,1.24-8.75,18.42L685.14,738l3.07-9Z"/><path class="cls-2" d="M698.07,684.52c-4.48-1.58-7.43.39-11.9,5.52l-2,2.24c-5.25,6-11,9.41-18,6.93-7.92-2.79-10.37-11.15-7.27-19.85a19.31,19.31,0,0,1,7.63-9.89L675.4,673l-1.46,4.12-11.09-1.76,3.84-3.58,3.44,1.21c-4.5,2.2-6.58,4.32-7.87,8-1.91,5.35-.66,10.34,4.5,12.17,4.34,1.53,7.89-.38,11.61-4.7l2-2.31c6.74-7.81,12-9.9,18.46-7.61,8.13,2.87,10.67,11.4,7.32,20.8a27.88,27.88,0,0,1-8.39,12l-9.5-3.82,1.47-4.11,11.24,2-3.52,3.78-3.3-1.17c4.61-3.16,6.82-5,8.48-9.66C704.93,691.8,703.44,686.41,698.07,684.52Z"/></g><path class="cls-12" d="M601.32,186.4c2.62.92,5.24,1.85,7.87,2.76l-3.78,14.53L595,201.5q-2.09,10.09-4.16,20.21l7.43,2.56q-2.9,7.65-5.81,15.29a929.28,929.28,0,0,0-411.82,0q-2.91-7.65-5.81-15.29l7.43-2.56q-2.09-10.11-4.16-20.21l-10.46,2.19-3.78-14.53c2.63-.91,5.25-1.84,7.87-2.76q-17.6-79.47-35.18-158.93L226.76,9.53l4.92,21.87q2.48,10.93,4.93,21.87l29-4.61q-2.7-21.37-5.39-42.76L359,0l2.64,41.71h49.66L414,0l98.8,5.9q-2.7,21.39-5.39,42.76l29,4.61q4.93-21.87,9.85-43.74L636.5,27.47Q618.91,106.94,601.32,186.4Z"/><rect class="cls-2" x="363.03" y="46.91" width="28.47" height="13.1"/><rect class="cls-2" x="364.34" y="65.58" width="13.94" height="13.1"/><rect class="cls-2" x="365.7" y="83.5" width="25.65" height="13.1"/><rect class="cls-2" x="395.72" y="83.5" width="11.09" height="13.1"/><rect class="cls-2" x="367.43" y="101.75" width="11.72" height="13.1"/><rect class="cls-2" x="383.95" y="101.75" width="21.79" height="13.1"/><rect class="cls-2" x="369.37" y="119.12" width="22.28" height="13.1"/><rect class="cls-2" x="395.72" y="119.12" width="9.29" height="13.1"/><rect class="cls-2" x="370.05" y="135.72" width="11.22" height="13.1"/><rect class="cls-2" x="393.54" y="153.48" width="9.4" height="9.55"/><rect class="cls-2" x="370.67" y="153.48" width="18.82" height="9.55"/><rect class="cls-2" x="385.57" y="135.72" width="18.16" height="13.1"/><rect class="cls-2" x="383.51" y="65.58" width="24.07" height="13.1"/><rect class="cls-2" x="397.27" y="46.91" width="11.77" height="13.1"/><polygon class="cls-2" points="245.01 69.02 209.5 74.95 207.27 62.04 242.78 56.1 245.01 69.02"/><polygon class="cls-2" points="231.7 90.19 214.32 93.09 212.08 80.18 229.47 77.27 231.7 90.19"/><polygon class="cls-2" points="251.05 105.13 219.06 110.47 216.83 97.56 248.82 92.21 251.05 105.13"/><polygon class="cls-2" points="270.34 101.9 256.51 104.21 254.28 91.3 268.11 88.99 270.34 101.9"/><polygon class="cls-2" points="238.95 125.66 224.34 128.1 222.11 115.19 236.72 112.75 238.95 125.66"/><polygon class="cls-2" points="272.11 120.12 244.94 124.66 242.71 111.75 269.88 107.21 272.11 120.12"/><polygon class="cls-2" points="257.5 140.18 229.72 144.82 227.49 131.91 255.27 127.27 257.5 140.18"/><polygon class="cls-2" points="274.16 137.4 262.58 139.33 260.35 126.42 271.93 124.48 274.16 137.4"/><polygon class="cls-2" points="247.38 158.71 233.39 161.04 231.16 148.13 245.15 145.79 247.38 158.71"/><polygon class="cls-2" points="276.83 168.2 265.11 170.16 263.48 160.75 275.2 158.79 276.83 168.2"/><polygon class="cls-2" points="260.06 171.01 236.59 174.93 234.96 165.51 258.43 161.59 260.06 171.01"/><polygon class="cls-2" points="275.4 154.02 252.75 157.81 250.52 144.9 273.17 141.11 275.4 154.02"/><polygon class="cls-2" points="268.24 84.08 238.22 89.1 235.99 76.18 266 71.17 268.24 84.08"/><polygon class="cls-2" points="266.89 65.36 252.21 67.81 249.97 54.9 264.66 52.45 266.89 65.36"/><polygon class="cls-2" points="364.87 163.4 352.23 164.09 351.46 154.6 364.24 153.89 364.87 163.4"/><path class="cls-2" d="M363.92,149.2l-12.83.7h0l-4.21.24.42,4.68.87,9.5-6.37.36-.8-9.5-.41-4.7-1.1-13-.3-3.57-1.11-13a19.43,19.43,0,0,0-.4-4.34A19.81,19.81,0,0,0,328.93,104a18.51,18.51,0,0,0-21.9,1.21,19.65,19.65,0,0,0-7.32,13.47,18.69,18.69,0,0,0,.09,4.35h0l1.11,13,.3,3.63,1.1,13,.4,4.72.81,9.48-12.4.68-9.42.52-.86-9.47,9.37-.52-.45-4.72-9.34.52-1.18-13,9.27-.51-.35-3.64-9.25.5-1.17-13,9.18-.51-.42-4.33-9.15.5-1.18-13,9.09-.5-.5-5.26-9.06.5-1.18-13,9-.51L283,83.26l-9,.51-1.17-13,8.89-.5-.55-5.72-8.86.49-1.17-13,8.79-.49-.55-5.69-8.76.48-3.21-35.5,8.57-.47L287,9.82l1.29,15.36.45,5.37,16.62-.91-.24-5.37-.68-15.4,20.31-1.1.86,15.38.31,5.38,4.5-.25,5.31-.29,5.53-.3-.21-5.37-.6-15.4,14-.76q1.19,17.78,2.36,35.54l-14.34.78-5.38.3-5.47.29.45,5.62,5.53-.31,1.19,13-5.67.31.45,5.67,5.74-.32,1.18,13-5.86.33.38,4.88,5.92-.34,1.19,13-6.05.33.42,5.23,6.1-.33,4.73-.27,13.49-.75.87,13-13.31.73-4.58.26.39,4.35,1.19,13,.32,3.55L363,135.82Q363.44,142.51,363.92,149.2Z"/><polygon class="cls-2" points="358.03 60.33 343.95 61.11 342.9 48.08 357.17 47.29 358.03 60.33"/><polygon class="cls-2" points="359.27 79.01 345.45 79.79 344.4 66.76 358.4 65.97 359.27 79.01"/><polygon class="cls-2" points="360.46 96.94 346.89 97.69 345.84 84.66 359.59 83.89 360.46 96.94"/><polygon class="cls-2" points="362.82 132.62 349.75 133.33 348.71 120.3 361.96 119.58 362.82 132.62"/><path class="cls-2" d="M329,164.38l-17.42,1c-.22-3.16-.44-6.33-.67-9.49l-.33-4.72q-.45-6.49-.91-13c-.09-1.2-.17-2.41-.26-3.61q-.27-3.9-.55-7.81a8.61,8.61,0,0,1,.87-5.27h0a8.16,8.16,0,0,1,14.29-.78,8.68,8.68,0,0,1,1.45,4.56q.36,4.2.75,8.38c.1,1.2.21,2.39.33,3.59q.57,6.5,1.17,13c.14,1.56.28,3.14.41,4.7C328.43,158.05,328.72,161.22,329,164.38Z"/><polygon class="cls-2" points="527.99 69.02 563.5 74.95 565.73 62.04 530.22 56.1 527.99 69.02"/><polygon class="cls-2" points="541.3 90.19 558.68 93.09 560.92 80.18 543.53 77.27 541.3 90.19"/><polygon class="cls-2" points="521.95 105.13 553.94 110.47 556.17 97.56 524.18 92.21 521.95 105.13"/><polygon class="cls-2" points="502.66 101.9 516.49 104.21 518.72 91.3 504.89 88.99 502.66 101.9"/><polygon class="cls-2" points="534.05 125.66 548.66 128.1 550.89 115.19 536.28 112.75 534.05 125.66"/><polygon class="cls-2" points="500.89 120.12 528.06 124.66 530.29 111.75 503.13 107.21 500.89 120.12"/><polygon class="cls-2" points="515.5 140.18 543.28 144.82 545.51 131.91 517.73 127.27 515.5 140.18"/><polygon class="cls-2" points="498.84 137.4 510.42 139.33 512.65 126.42 501.07 124.48 498.84 137.4"/><polygon class="cls-2" points="525.62 158.71 539.61 161.04 541.84 148.13 527.85 145.79 525.62 158.71"/><polygon class="cls-2" points="496.17 168.2 507.89 170.16 509.52 160.75 497.8 158.79 496.17 168.2"/><polygon class="cls-2" points="512.94 171.01 536.41 174.93 538.04 165.51 514.57 161.59 512.94 171.01"/><polygon class="cls-2" points="497.6 154.02 520.25 157.81 522.48 144.9 499.83 141.11 497.6 154.02"/><polygon class="cls-2" points="504.76 84.08 534.78 89.1 537.01 76.18 507 71.17 504.76 84.08"/><polygon class="cls-2" points="506.11 65.36 520.79 67.81 523.02 54.9 508.34 52.45 506.11 65.36"/><polygon class="cls-2" points="408.13 163.4 420.77 164.09 421.54 154.6 408.76 153.89 408.13 163.4"/><path class="cls-2" d="M409.08,149.2l12.83.7h0l4.21.24-.42,4.68-.87,9.5,6.37.36.8-9.5.41-4.7,1.1-13,.3-3.57,1.11-13a19.43,19.43,0,0,1,.4-4.34A19.81,19.81,0,0,1,444.07,104a18.51,18.51,0,0,1,21.9,1.21,19.65,19.65,0,0,1,7.32,13.47,18.69,18.69,0,0,1-.09,4.35h0l-1.11,13-.3,3.63-1.1,13-.4,4.72-.81,9.48,12.4.68,9.42.52.86-9.47L482.8,158l.45-4.72,9.34.52,1.18-13-9.27-.51.35-3.64,9.25.5,1.17-13-9.18-.51.42-4.33,9.15.5,1.18-13-9.09-.5.5-5.26,9.06.5,1.18-13-9-.51.46-4.88,9,.51,1.17-13-8.89-.5.55-5.72,8.86.49,1.17-13L493,51.59l.55-5.69,8.76.48,3.21-35.5L497,10.41,486,9.82l-1.29,15.36-.45,5.37-16.62-.91.24-5.37.68-15.4-20.31-1.1-.86,15.38-.31,5.38-4.5-.25L437.27,28l-5.53-.3.21-5.37.6-15.4-14-.76q-1.19,17.78-2.36,35.54l14.34.78,5.38.3,5.47.29-.45,5.62-5.53-.31-1.19,13,5.67.31-.45,5.67-5.74-.32-1.18,13,5.86.33L438,85.27l-5.92-.34-1.19,13,6.05.33-.42,5.23-6.1-.33-4.73-.27-13.49-.75-.87,13,13.31.73,4.58.26-.39,4.35-1.19,13-.32,3.55-17.27-1.31Q409.56,142.51,409.08,149.2Z"/><polygon class="cls-2" points="414.97 60.33 429.05 61.11 430.1 48.08 415.83 47.29 414.97 60.33"/><polygon class="cls-2" points="413.73 79.01 427.55 79.79 428.6 66.76 414.6 65.97 413.73 79.01"/><polygon class="cls-2" points="412.54 96.94 426.11 97.69 427.16 84.66 413.41 83.89 412.54 96.94"/><polygon class="cls-2" points="410.18 132.62 423.25 133.33 424.29 120.3 411.04 119.58 410.18 132.62"/><path class="cls-2" d="M444,164.38l17.42,1c.22-3.16.44-6.33.67-9.49l.33-4.72q.45-6.49.91-13c.09-1.2.17-2.41.26-3.61q.27-3.9.55-7.81a8.61,8.61,0,0,0-.87-5.27h0a8.16,8.16,0,0,0-14.29-.78,8.68,8.68,0,0,0-1.45,4.56q-.36,4.2-.75,8.38c-.1,1.2-.21,2.39-.33,3.59q-.57,6.5-1.17,13c-.14,1.56-.28,3.14-.41,4.7C444.57,158.05,444.28,161.22,444,164.38Z"/><path class="cls-2" d="M213.3,111.51l16,64.74-22,4.18-5.1-26.16h0a38.21,38.21,0,0,0-1.07-5.47c-1.85-7-6.71-18.86-19-24.71l-1.45-6.36L177.85,105l-1.08-4.74-5.13,1L159,103.61l-2.8-12.76,12.5-2.41,5.13-1-1.27-5.52-2.9-12.76-1.23-5.43-5.13,1L151,67.07l-2.9-13.26-1.22-5.54-3.29-15,12-2.54h0l5.07-1.07L164.17,45l1.26,5.52,16-3.07-1.08-5.54L177.3,26.11l14.1-3L195.35,39l1.34,5.46,16.55-3.17-1.19-5.48L208.5,19.48l13.68-2.91q4.06,18.06,8.14,36.12l-14.1,2.36L200,57.77v0l-.65.13.66-.11,1.32,5.35,3.16,12.73,1.35,5.46L209,94l1.18,4.74Z"/><path class="cls-2" d="M195.57,182.67l-18.45,3.52-11.38-51.92a18.12,18.12,0,0,1,10.23.34c7.87,2.69,10.75,10.13,11.26,11.54,0,0,0,.08,0,.12Z"/><polygon class="cls-2" points="167.48 82.92 155.01 85.3 152.22 72.53 164.57 70.16 167.48 82.92"/><path class="cls-2" d="M175.62,118.7l-12.73,2.44h0l-2.8-12.78L172.72,106Z"/><path class="cls-2" d="M559.7,111.51l-16,64.74,22,4.18,5.1-26.16h0a38.21,38.21,0,0,1,1.07-5.47c1.85-7,6.71-18.86,19-24.71l1.45-6.36L595.15,105l1.08-4.74,5.13,1L614,103.61l2.8-12.76-12.5-2.41-5.13-1,1.27-5.52,2.9-12.76,1.23-5.43,5.13,1L622,67.07l7.41-33.8-12-2.54h0l-5.07-1.07L608.83,45l-1.26,5.52-16-3.07,1.08-5.54,3.07-15.76-14.1-3-4,15.9-1.34,5.46L559.76,41.3,561,35.82l3.55-16.34-13.68-2.91q-4.07,18.06-8.14,36.12l14.1,2.36L573,57.77v0l.65.13-.66-.11-1.32,5.35-3.16,12.73-1.35,5.46L564,94l-1.18,4.74Z"/><path class="cls-2" d="M577.43,182.67l18.45,3.52,11.38-51.92a18.12,18.12,0,0,0-10.23.34c-7.87,2.69-10.75,10.13-11.26,11.54,0,0,0,.08,0,.12Z"/><polygon class="cls-2" points="605.52 82.92 617.99 85.3 620.78 72.53 608.43 70.16 605.52 82.92"/><path class="cls-2" d="M597.38,118.7l12.73,2.44h0l2.8-12.78L600.28,106Z"/><path class="cls-2" d="M602.35,195.68c-.24,1.06-.47,2.12-.71,3.17A922.29,922.29,0,0,0,386.5,174a922.29,922.29,0,0,0-215.14,24.9c-.24-1-.47-2.11-.71-3.17,19.55-4.75,40.25-9.08,62-12.75a892.21,892.21,0,0,1,153.8-12.38,892.21,892.21,0,0,1,153.8,12.38C562.1,186.6,582.8,190.93,602.35,195.68Z"/><path class="cls-2" d="M590.64,230.36l-1.23,3.22a892.94,892.94,0,0,0-405.82,0l-1.23-3.22c25.51-6,53.48-11.31,83.69-15.4A901.82,901.82,0,0,1,507,215C537.16,219.05,565.13,224.39,590.64,230.36Z"/><polygon class="cls-2" points="382.53 197.9 344.58 199.2 344.3 191.17 382.25 189.87 382.53 197.9"/><rect class="cls-2" x="367.51" y="178.56" width="37.97" height="8.03"/><polygon class="cls-2" points="360.27 185.95 322.38 188.56 321.81 180.54 359.7 177.94 360.27 185.95"/><polygon class="cls-2" points="339.75 198.98 301.92 202.23 301.21 194.23 339.04 190.98 339.75 198.98"/><polygon class="cls-2" points="316.88 188.19 279.19 192.74 278.19 184.77 315.88 180.22 316.88 188.19"/><polygon class="cls-2" points="296.37 202.66 258.68 207.21 257.68 199.24 295.37 194.69 296.37 202.66"/><polygon class="cls-2" points="273.13 192.67 235.62 198.51 234.34 190.58 271.85 184.73 273.13 192.67"/><polygon class="cls-2" points="253.58 207.92 216.31 215.05 214.75 207.16 252.03 200.03 253.58 207.92"/><polygon class="cls-2" points="211.74 215.87 187.99 221.26 186.15 213.43 209.9 208.04 211.74 215.87"/><polygon class="cls-2" points="229.69 199.55 192.69 207.95 190.85 200.12 227.85 191.72 229.69 199.55"/><polygon class="cls-2" points="188.38 208.93 184.31 209.85 182.47 202.02 186.54 201.1 188.38 208.93"/><polygon class="cls-2" points="584.62 208.93 588.69 209.85 590.52 202.02 586.46 201.1 584.62 208.93"/><path class="cls-13" d="M603.11,192.3c-.25,1.13-.51,2.26-.76,3.38-19.55-4.75-40.25-9.08-62.05-12.75a892.21,892.21,0,0,0-153.8-12.38,892.21,892.21,0,0,0-153.8,12.38c-21.8,3.67-42.5,8-62,12.75-.25-1.12-.51-2.25-.76-3.38A924.23,924.23,0,0,1,386.5,167.44,924.23,924.23,0,0,1,603.11,192.3Z"/><path class="cls-13" d="M592,226.93c-.44,1.14-.88,2.29-1.31,3.43-25.51-6-53.48-11.31-83.69-15.4a901.82,901.82,0,0,0-240.9,0c-30.21,4.09-58.18,9.43-83.69,15.4-.43-1.14-.87-2.29-1.31-3.43a921,921,0,0,1,410.9,0Z"/><polygon class="cls-2" points="390.47 197.9 428.42 199.2 428.7 191.17 390.75 189.87 390.47 197.9"/><rect class="cls-2" x="367.51" y="178.56" width="37.97" height="8.03" transform="translate(773 365.16) rotate(-180)"/><polygon class="cls-2" points="412.73 185.95 450.62 188.56 451.19 180.54 413.3 177.94 412.73 185.95"/><polygon class="cls-2" points="433.25 198.98 471.08 202.23 471.79 194.23 433.96 190.98 433.25 198.98"/><polygon class="cls-2" points="456.12 188.19 493.81 192.74 494.81 184.77 457.12 180.22 456.12 188.19"/><polygon class="cls-2" points="476.63 202.66 514.32 207.21 515.32 199.24 477.63 194.69 476.63 202.66"/><polygon class="cls-2" points="499.87 192.67 537.38 198.51 538.66 190.58 501.15 184.73 499.87 192.67"/><polygon class="cls-2" points="519.42 207.92 556.69 215.05 558.25 207.16 520.98 200.03 519.42 207.92"/><polygon class="cls-2" points="561.26 215.87 585.01 221.26 586.85 213.43 563.1 208.04 561.26 215.87"/><polygon class="cls-2" points="543.31 199.55 580.31 207.95 582.15 200.12 545.15 191.72 543.31 199.55"/></g></g></svg>