<svg width="154" height="154" viewBox="0 0 154 154" fill="none" xmlns="http://www.w3.org/2000/svg">
<path d="M117.037 64.8349C116.715 64.8349 116.715 65.4328 117.037 65.4328C117.804 65.4328 128.482 65.2565 129.379 65.0802C129.46 65.0679 129.535 65.0267 129.589 64.9641C129.643 64.9015 129.672 64.8217 129.672 64.7391C129.672 64.6565 129.643 64.5766 129.589 64.514C129.535 64.4514 129.46 64.4102 129.379 64.398C126.565 64.03 120.134 64.7736 117.037 64.8349ZM121.315 80.4878C120.962 80.4878 121.023 81.0781 121.361 81.0934C123.859 81.1777 127.754 81.0474 130.306 80.9324C130.774 80.9324 130.827 80.1659 130.306 80.1659C127.447 80.1812 124.181 80.2196 121.315 80.4878ZM121.644 54.0495C121.57 54.0527 121.499 54.0828 121.445 54.1342C121.392 54.1856 121.358 54.2547 121.352 54.3288C121.345 54.4029 121.366 54.4768 121.41 54.5368C121.454 54.5969 121.518 54.6389 121.59 54.6551C122.963 54.8238 127.416 55.0001 128.758 54.4328C128.826 54.3988 128.882 54.3433 128.916 54.2748C128.951 54.2063 128.962 54.1285 128.948 54.0531C128.934 53.9778 128.896 53.909 128.84 53.8571C128.783 53.8053 128.711 53.7733 128.635 53.7659C126.857 53.6586 124.005 54.2258 121.644 54.0495ZM112.89 68.8593C119.36 68.7673 126.688 68.315 133.219 67.7171C133.625 67.7171 133.587 66.9506 133.165 66.9506C126.742 67.1115 119.237 67.5332 112.852 68.1924C112.763 68.1975 112.681 68.2375 112.622 68.3036C112.563 68.3697 112.532 68.4566 112.538 68.545C112.543 68.6334 112.583 68.7162 112.649 68.7752C112.715 68.8341 112.802 68.8644 112.89 68.8593ZM122.165 34.7172C123.967 34.5792 125.768 34.4719 127.531 34.2572C128.037 34.2036 127.907 33.4907 127.409 33.4907C125.615 33.6287 123.821 33.8586 122.043 34.0656C121.629 34.1116 121.744 34.7478 122.165 34.7172ZM111.648 50.7074C111.265 50.7074 111.25 51.359 111.648 51.3896C115.982 51.5915 120.324 51.2879 124.588 50.4851C125.071 50.4008 124.994 49.6342 124.503 49.7185C120.258 50.4426 115.955 50.7736 111.648 50.7074ZM125.914 38.3889C126.581 38.5499 126.68 37.4614 126.067 37.5687C123.075 38.0538 120.043 38.2412 117.014 38.1283C116.608 38.1283 116.516 38.7185 116.93 38.7645C119.927 39.0654 122.952 38.939 125.914 38.3889ZM109.31 68.499C108.712 68.269 105.953 68.6523 105.179 68.7366C104.803 68.7366 104.788 69.3422 105.179 69.3345L108.314 69.2349C109.763 69.1812 109.755 68.6753 109.31 68.499ZM112.476 101.668C111.832 101.514 107.256 101.859 106.505 101.905C106.106 101.905 106.183 102.518 106.581 102.511C107.394 102.511 111.848 102.511 112.553 102.289C112.867 102.181 112.76 101.729 112.476 101.668ZM106.497 98.4251C108.651 98.5248 113.986 98.6168 116.14 98.1032C116.191 98.1028 116.24 98.0918 116.286 98.0711C116.332 98.0503 116.373 98.0202 116.406 97.9826C116.44 97.945 116.465 97.9009 116.481 97.853C116.496 97.805 116.501 97.7544 116.496 97.7044C116.49 97.6543 116.475 97.606 116.449 97.5624C116.424 97.5189 116.39 97.4811 116.349 97.4515C116.309 97.4219 116.262 97.4012 116.213 97.3906C116.164 97.3801 116.113 97.38 116.064 97.3903C112.913 97.3903 109.993 97.9192 106.589 97.7812C106.183 97.7659 106.075 98.4021 106.497 98.4251ZM113.933 84.7959C114.393 84.7115 114.354 84.0293 113.871 84.0293C110.468 84.3743 109.755 84.4586 106.267 84.5966C105.93 84.5966 105.892 85.1791 106.267 85.2021C108.829 85.3722 111.403 85.2358 113.933 84.7959ZM118.655 79.9743C114.485 80.1276 110.154 80.8328 105.8 80.9861C105.722 80.9981 105.651 81.0375 105.6 81.0973C105.548 81.157 105.52 81.2332 105.52 81.3119C105.52 81.3906 105.548 81.4668 105.6 81.5265C105.651 81.5863 105.722 81.6257 105.8 81.6377C109.41 81.6377 115.22 81.469 118.739 80.6872C118.812 80.6546 118.873 80.5995 118.913 80.5297C118.953 80.46 118.969 80.3793 118.96 80.2996C118.95 80.2199 118.916 80.1452 118.861 80.0867C118.806 80.0281 118.734 79.9887 118.655 79.9743ZM132.859 99.7896C132.797 99.7896 128.589 100.135 127.869 100.112C127.8 100.124 127.738 100.158 127.69 100.208C127.643 100.259 127.613 100.324 127.605 100.392C127.598 100.461 127.612 100.531 127.647 100.591C127.682 100.651 127.736 100.698 127.8 100.725C128.658 100.886 132.276 100.947 133.02 100.318C133.057 100.277 133.083 100.227 133.095 100.173C133.108 100.118 133.106 100.062 133.089 100.008C133.073 99.955 133.043 99.9069 133.003 99.8685C132.963 99.8302 132.913 99.803 132.859 99.7896ZM134.216 83.0711C128.903 83.4161 122.97 83.6154 117.681 84.0676C117.267 84.0676 117.344 84.6885 117.742 84.7115C120.602 84.7959 130.774 84.2746 134.285 83.83C134.335 83.8262 134.383 83.8123 134.428 83.7893C134.473 83.7663 134.512 83.7345 134.545 83.6959C134.577 83.6573 134.601 83.6127 134.615 83.5646C134.63 83.5165 134.635 83.466 134.629 83.4161C134.62 83.3157 134.571 83.2232 134.493 83.1586C134.416 83.094 134.316 83.0626 134.216 83.0711ZM114.262 65.6398C114.364 65.6398 114.461 65.5994 114.533 65.5275C114.605 65.4556 114.646 65.3582 114.646 65.2565C114.646 65.1548 114.605 65.0574 114.533 64.9855C114.461 64.9136 114.364 64.8732 114.262 64.8732C110.958 64.9575 107.624 64.9805 104.297 65.2335C104.226 65.2494 104.162 65.2892 104.116 65.3463C104.07 65.4035 104.045 65.4745 104.045 65.5478C104.045 65.621 104.07 65.6921 104.116 65.7492C104.162 65.8064 104.226 65.8462 104.297 65.8621C107.639 65.9234 110.958 65.7471 114.262 65.6398ZM127.332 96.5854C126.167 96.5854 121.966 96.8844 120.97 97.0607C120.648 97.1143 120.602 97.6432 120.97 97.6586C122.05 97.7122 126.228 97.4439 127.439 97.3366C127.907 97.3519 127.807 96.5854 127.332 96.5854ZM125.094 100.886L115.458 101.499C115.021 101.499 115.128 102.166 115.558 102.143C117.428 102.059 123.446 101.821 125.132 101.591C125.508 101.545 125.515 100.886 125.094 100.886ZM118.195 34.2572C115.366 33.9353 106.489 34.4719 103.477 34.7785C103.063 34.8168 103.032 35.4607 103.477 35.4224C108.429 35.1004 113.25 34.9931 118.202 35.0084C118.289 34.99 118.366 34.9422 118.422 34.8732C118.477 34.8041 118.506 34.7181 118.506 34.6297C118.505 34.5413 118.473 34.4559 118.417 34.388C118.36 34.3201 118.281 34.2739 118.195 34.2572ZM119.015 54.9464C119.498 54.8774 119.321 54.1799 118.839 54.1799C113.905 54.742 108.941 54.998 103.975 54.9464C103.903 54.9579 103.838 54.9947 103.79 55.0502C103.743 55.1057 103.717 55.1762 103.717 55.2492C103.717 55.3221 103.743 55.3927 103.79 55.4482C103.838 55.5037 103.903 55.5405 103.975 55.552C108.996 55.7938 114.029 55.5912 119.015 54.9464ZM113.81 38.8949C113.86 38.8901 113.909 38.8753 113.954 38.8515C113.999 38.8277 114.038 38.7952 114.07 38.756C114.102 38.7168 114.126 38.6716 114.141 38.6231C114.155 38.5746 114.16 38.5236 114.155 38.4732C114.15 38.4228 114.135 38.3738 114.112 38.3291C114.088 38.2844 114.055 38.2449 114.016 38.2128C113.977 38.1808 113.932 38.1568 113.883 38.1423C113.835 38.1278 113.784 38.123 113.733 38.1283C110.353 38.5499 107.149 38.5652 103.814 38.8565C103.462 38.8948 103.423 39.4698 103.814 39.4851C107.156 39.5391 110.498 39.3418 113.81 38.8949ZM104.312 51.0293C103.929 51.0293 103.921 51.6349 104.358 51.6502C105.734 51.7798 107.117 51.8157 108.498 51.7576C108.56 51.7298 108.613 51.6846 108.65 51.6275C108.687 51.5703 108.707 51.5037 108.707 51.4356C108.707 51.3675 108.687 51.3009 108.65 51.2437C108.613 51.1866 108.56 51.1414 108.498 51.1137C108.36 51.037 105.018 51.0293 104.312 51.0293ZM94.7459 55.4447C95.1905 55.4447 96.8386 52.7157 97.7661 51.7806C98.1034 51.4433 97.5515 50.876 97.2065 51.198C96.2286 52.0796 95.3819 53.0966 94.6922 54.2182L92.7529 52.4321C92.3543 52.0642 91.8407 52.6928 92.2086 53.0684C92.5766 53.444 94.1786 55.4447 94.7459 55.4447ZM89.5027 42.9269C92.6456 43.1109 95.911 43.0496 99.3605 43.0725C99.6058 43.0725 99.7515 42.3903 99.3605 34.2496C99.3605 33.6593 99.3069 33.2224 99.2992 33.0614C99.3012 33.0377 99.2981 33.0138 99.2902 32.9913C99.2822 32.9689 99.2696 32.9483 99.2532 32.9311C99.0309 32.6935 97.5821 32.7088 94.3243 32.7931C88.8435 32.9234 88.2379 32.8851 88.2379 33.1994C88.2149 33.2607 88.5598 42.8349 89.5027 42.9269ZM89.7173 42.3597C89.3341 40.313 89.0581 35.9896 88.8205 33.5673C91.0511 33.6976 96.1334 33.4447 98.6936 33.3834C98.6936 33.3834 98.8316 40.198 98.8929 42.398C95.8881 42.329 92.7529 42.214 89.6867 42.3213L89.7173 42.3597Z" fill="black"/>
<path d="M100.418 57.4452C101.062 57.1923 100.311 50.048 100.204 48.17C100.198 48.1314 100.179 48.0959 100.15 48.0703C99.69 47.6717 89.9625 48.2006 89.4719 48.239C88.9813 48.2773 89.4719 50.9449 89.5562 52.7616C89.7325 57.2843 89.9395 57.6752 90.1694 57.7059C91.8405 57.9435 98.8851 58.0431 100.418 57.4452ZM89.9395 48.8675C93.2586 48.6529 96.6238 48.6376 99.6133 48.6222C99.69 50.416 99.8126 55.4675 99.966 56.832C96.8418 57.1551 93.6979 57.2448 90.5604 57.1003C90.6907 55.9581 90.0545 50.163 89.9395 48.8675ZM96.1792 68.2229L97.9576 66.6132C98.0094 66.5255 98.0322 66.4238 98.0228 66.3224C98.0133 66.221 97.9721 66.1252 97.9049 66.0487C97.8377 65.9722 97.7481 65.9188 97.6488 65.8963C97.5495 65.8738 97.4456 65.8832 97.352 65.9233C96.6238 66.3718 95.9631 66.9215 95.3896 67.556L93.7952 66.0842C93.7088 66.0039 93.5941 65.9613 93.4762 65.9656C93.3583 65.9699 93.247 66.0208 93.1667 66.1072C93.0863 66.1936 93.0437 66.3084 93.048 66.4263C93.0523 66.5442 93.1032 66.6555 93.1896 66.7358L94.7227 68.2689C93.343 69.7254 92.7374 70.6376 92.8754 71.0515C93.0133 71.4654 93.5116 71.2815 93.6419 71.0975C94.1785 70.4383 94.7841 69.687 95.4356 68.9895C96.0816 69.6947 96.7982 70.3317 97.5743 70.8905C97.6544 70.9113 97.7386 70.9101 97.818 70.887C97.8975 70.8639 97.9692 70.8199 98.0257 70.7594C98.0822 70.699 98.1214 70.6245 98.1391 70.5437C98.1567 70.4629 98.1523 70.3788 98.1262 70.3003C97.5492 69.5437 96.8968 68.8477 96.1792 68.2229ZM96.5855 35.3609C95.361 36.4318 94.3606 37.7344 93.6419 39.1937C93.0645 38.5024 92.3997 37.8892 91.6642 37.3693C91.2119 37.055 90.6294 37.6529 91.074 37.9902C91.9484 38.763 92.7656 39.5982 93.5193 40.4891C93.7186 40.6961 93.9102 40.5888 94.0788 40.3665C94.9136 38.7401 95.9433 37.2214 97.145 35.8438C97.513 35.4376 96.9841 34.9853 96.5855 35.3609ZM96.3402 85.409C96.7388 85.133 98.2565 82.2048 99.1381 81.2083C99.483 80.825 98.8851 80.2961 98.4942 80.7024C97.4448 81.7835 96.545 83.0003 95.8189 84.3205L94.0328 82.7874C93.6419 82.4578 93.1207 83.048 93.5269 83.4389C93.9332 83.8299 95.6809 85.9762 96.3402 85.409ZM102.189 95.2361C101.898 94.6612 91.4113 95.2361 91.3116 95.2361C91.2887 95.2389 91.2669 95.2474 91.2482 95.2608C91.2294 95.2742 91.2144 95.2921 91.2043 95.3128C90.8517 95.88 91.2043 105.102 91.4572 105.96C91.7562 107.003 101.921 106.136 102.427 106.182C102.442 106.186 102.458 106.186 102.473 106.182C102.488 106.179 102.502 106.172 102.515 106.163C102.527 106.153 102.537 106.141 102.545 106.128C102.552 106.114 102.556 106.098 102.557 106.083C102.718 104.91 102.227 95.3128 102.189 95.2361ZM91.8022 95.7957C94.8684 95.926 98.4942 95.7344 101.606 95.7267C101.652 97.0069 101.928 104.519 101.967 105.531C98.5632 105.684 95.7039 105.631 92.0782 105.531C92.1165 104.251 91.8482 96.9609 91.8022 95.8187V95.7957Z" fill="black"/>
<path d="M95.5045 100.763C96.0488 100.763 98.8313 100.955 99.0536 100.832C99.1122 100.799 99.1623 100.752 99.2 100.696C99.2377 100.641 99.2619 100.577 99.2708 100.51C99.2797 100.443 99.2731 100.375 99.2514 100.311C99.2296 100.248 99.1934 100.19 99.1456 100.142C98.7393 99.7128 96.1714 99.8048 95.7421 99.8891C95.1596 99.9965 95.0522 100.219 95.0676 100.387C95.088 100.49 95.1421 100.582 95.2213 100.65C95.3005 100.719 95.4002 100.758 95.5045 100.763ZM96.5394 78.2648C94.0251 78.3108 91.3805 78.4027 90.9435 78.4334C90.7749 78.4334 90.5986 78.579 90.5756 80.1735C90.5756 82.0822 90.9052 88.1303 91.6718 88.1839C93.2049 88.2989 101.131 88.3296 102.15 88.2529C102.311 88.2529 102.442 88.2529 102.15 84.2669C101.99 82.2125 101.629 78.4794 101.629 78.4794C101.599 78.3261 101.583 78.1881 96.5394 78.2648ZM101.054 78.9393C101.238 81.7986 101.338 84.7268 101.645 87.6013H91.8941C91.5951 84.8341 91.3958 81.9825 91.1812 79.0543L101.054 78.9393ZM92.7526 73.9491C95.8648 73.9491 101.07 73.5275 101.116 73.5045C101.606 73.2515 101.116 66.3296 100.955 63.3707C100.955 62.8418 98.2488 62.8341 96.0028 62.9184C95.0216 62.9184 90.1463 63.1791 90.1617 63.8766C90.4223 74.1407 90.361 73.6425 90.5526 73.7498C91.2699 73.9369 92.0133 74.0043 92.7526 73.9491ZM91.1352 73.1825C90.9589 70.1623 90.8975 66.9582 90.7749 63.9839C93.958 63.7012 97.1542 63.5938 100.349 63.662C100.349 64.7122 100.556 71.6954 100.686 72.8606C99.5519 72.9372 92.3233 72.9909 91.1582 73.1902L91.1352 73.1825Z" fill="black"/>
<path d="M148.711 85.294C146.703 30.662 147.546 31.1219 147.178 30.8C146.657 30.3094 142.632 30.6313 141.643 30.685L141.229 22.3066C141.249 22.2561 141.256 22.2015 141.251 22.1476C141.245 22.0937 141.226 22.0419 141.196 21.9968C141.166 21.9517 141.125 21.9144 141.078 21.8883C141.03 21.8622 140.977 21.8479 140.923 21.8467C124.825 21.6474 108.26 22.7129 91.6489 23.8397C87.1723 24.154 82.5193 24.43 77.966 24.9129C77.9234 24.906 77.8799 24.9087 77.8384 24.9208C77.797 24.9328 77.7588 24.9539 77.7266 24.9825C77.6943 25.0111 77.6688 25.0465 77.6519 25.0862C77.6349 25.1258 77.627 25.1688 77.6287 25.2118C78.4719 45.6787 80.9249 78.763 85.1639 115.396C85.2099 115.818 88.7054 115.45 91.8482 115.243C91.8893 116.145 92.0518 117.037 92.3311 117.895C92.7911 118.478 149.654 114.952 149.585 112.53C149.339 103.431 149.01 94.2167 148.711 85.294ZM144.403 109.195C124.243 112.261 106.114 113.12 85.8691 114.868C81.8601 80.1351 80.212 56.3108 78.2036 25.4495C84.428 25.0815 107.448 22.9659 140.7 22.5289C141.528 44.8125 144.61 106.742 144.38 109.195H144.403ZM48.1779 56.4947C47.6566 56.4947 47.6643 57.5066 47.9096 57.8899C47.9379 57.946 47.982 57.9926 48.0365 58.0239C48.091 58.0552 48.1534 58.0699 48.2162 58.0662C48.6838 58.0125 48.6608 56.5484 48.1779 56.4947ZM45.4413 60.9254C45.7709 61.0097 46.6601 61.0634 46.8671 60.7568C47.1583 60.3275 46.3688 56.4334 46.2691 56.1575C46.2486 56.1012 46.2088 56.0539 46.1567 56.0243C46.1047 55.9946 46.0437 55.9844 45.9848 55.9954C45.9259 56.0065 45.8729 56.038 45.8351 56.0846C45.7973 56.1311 45.7773 56.1895 45.7786 56.2495C45.7786 56.947 46.0928 59.3157 46.2155 60.3045L45.4489 60.3505C45.3929 60.3744 45.345 60.414 45.3111 60.4646C45.2771 60.5152 45.2587 60.5745 45.2578 60.6355C45.257 60.6964 45.2739 60.7562 45.3065 60.8077C45.3391 60.8591 45.3859 60.9001 45.4413 60.9254ZM47.5263 55.0613C47.7532 54.9992 47.9918 54.9932 48.2215 55.044C48.4512 55.0947 48.6652 55.2006 48.8448 55.3526C49.1437 55.6209 49.7186 55.1073 48.8984 54.586C48.3082 54.1874 46.9284 54.0495 47.074 54.7547C47.0978 54.8529 47.1573 54.9387 47.2409 54.9954C47.3245 55.0521 47.4263 55.0756 47.5263 55.0613Z" fill="black"/>
<path d="M70.0015 82.9253C65.0726 78.0654 56.2036 72.3546 48.2315 71.2201C48.3635 70.7644 48.3635 70.2806 48.2315 69.825C48.8383 69.3177 49.4024 68.7614 49.9179 68.1616C51.014 66.8738 50.991 65.6166 49.4273 66.2528C50.9604 62.8647 50.9604 55.5212 50.4085 51.3971C52.9764 52.9992 57.3074 51.4584 56.7785 48.3309C60.2663 49.3811 62.5353 42.4515 58.1046 41.202C58.7255 35.9588 52.0106 35.1999 49.9562 38.2584C48.7987 34.878 43.4789 36.6564 43.8621 39.3086C41.4628 36.733 36.2809 37.6299 35.5604 40.8417C33.3911 38.8717 29.8113 39.7072 30.1256 42.6124C26.6914 41.018 24.8747 45.1267 27.5423 46.4452C25.8329 47.3651 25.8865 51.1518 28.5081 51.1518C28.5081 53.6814 30.0412 59.4765 33.8357 62.6501C34.2419 66.1992 33.5137 68.0159 32.2489 71.3044C19.7388 73.2055 10.2412 82.9636 5.97923 95.0675C1.1193 108.865 3.42661 121.897 17.8301 124.641C17.8001 126.482 17.5844 128.316 17.1862 130.114C17.179 130.182 17.1965 130.25 17.2355 130.306C17.2745 130.362 17.3324 130.402 17.3985 130.419C17.4647 130.436 17.5346 130.428 17.5956 130.397C17.6566 130.367 17.7044 130.315 17.7304 130.252C18.2436 128.466 18.5219 126.621 18.5583 124.764C22.0283 125.279 25.5732 124.738 28.7315 123.211C31.8897 121.684 34.515 119.241 36.2656 116.201C38.4846 117.044 40.7495 117.761 43.0496 118.348C50.2858 120.394 59.722 122.426 68.66 120.003C68.4837 124.288 68.2384 127.722 67.8551 131.134C67.8551 131.471 68.3227 131.571 68.3764 131.233C68.6754 129.44 69.4189 121.567 69.3729 119.796C75.0607 118.049 78.8628 114.101 79.798 108.973C81.4307 100.28 77.7513 90.5218 70.0015 82.9253ZM37.4461 49.91C37.6454 52.1483 37.4461 53.7428 36.7639 54.7776C36.5109 55.1532 36.1276 55.5441 35.798 55.5441C35.5451 55.2682 33.8893 53.5511 32.3256 54.5553C31.306 55.2222 31.26 56.5177 32.2259 58.2041C32.9162 59.2284 33.4101 60.3721 33.6823 61.5769C30.7465 58.388 29.8496 55.3985 29.175 51.1135C29.9542 50.9729 30.6655 50.5796 31.1987 49.9943C32.5402 51.9874 35.821 51.5887 37.4461 49.91ZM32.6935 55.0612C33.7283 54.425 34.6865 55.1915 35.5604 55.9581C36.074 56.4103 36.9172 55.7741 37.3158 55.1915C38.3583 53.7504 38.2663 51.3588 38.1283 50.163C38.8724 50.8716 39.8605 51.2668 40.8879 51.2668C41.9154 51.2668 42.9035 50.8716 43.6475 50.163C43.8008 52.3706 48.4308 52.8765 49.6496 51.0445C50.2092 54.8772 50.4775 63.1637 48.6224 66.6361C47.0893 67.3107 43.6015 68.8515 41.8691 68.1692C40.382 67.579 39.6308 65.31 37.8984 64.3365C36.7332 63.6926 35.7367 64.4208 36.5492 65.7239C38.6036 68.9894 38.4196 70.2312 36.7945 73.5887C35.3703 73.2006 34.0383 72.5307 32.8775 71.6187C34.5639 69.2041 35.0238 64.8961 34.6022 62.0292C34.2266 59.4765 33.8357 59.6299 32.8238 57.7441C32.3562 56.9699 31.9423 55.5365 32.6935 55.0612ZM45.6252 70.5225C45.564 70.5509 45.5154 70.6007 45.4884 70.6624C45.4614 70.7242 45.458 70.7937 45.4787 70.8578C45.4995 70.922 45.543 70.9763 45.601 71.0105C45.6591 71.0448 45.7277 71.0566 45.7938 71.0438C46.4512 70.9263 47.0743 70.6645 47.6182 70.2772C47.6624 70.992 47.4741 71.7019 47.0816 72.3009C46.9437 72.4926 47.189 73.0675 47.6872 72.3546C47.6489 74.4703 46.5681 77.0842 44.4907 78.1114C43.0828 77.8569 41.7429 77.3134 40.5555 76.5152C39.3681 75.717 38.359 74.6814 37.5918 73.4737C39.8914 69.5337 37.8677 66.5748 37.1931 65.3483C36.8175 64.6431 37.0092 64.5358 37.6224 64.9344C39.0712 65.8542 40.3437 68.4222 41.7464 68.7671C44.391 69.4034 47.6489 67.8089 49.2433 67.0961C50.0712 66.7204 50.5541 66.4675 49.5576 67.717C48.2238 69.365 47.4649 69.71 45.6252 70.5225ZM13.1848 103.239C13.1571 103.301 13.1527 103.371 13.1726 103.437C13.1924 103.502 13.2352 103.558 13.2929 103.594C13.3507 103.631 13.4196 103.645 13.487 103.635C13.5544 103.624 13.6159 103.59 13.6601 103.538C20.3827 92.9441 31.5053 85.5929 37.2315 74.2556C38.1207 76.2333 41.9228 78.7783 44.2684 78.7783C44.2684 80.687 44.0768 82.956 43.8775 85.133C41.5778 84.6041 35.3611 82.657 34.2419 80.1121C34.1116 79.7978 33.6057 80.0124 33.7283 80.3267C34.7785 83.1706 41.2635 85.4549 43.8085 85.9379C43.2709 91.6655 42.206 97.3313 40.6273 102.863C39.4698 107.003 37.9827 112.008 35.8363 115.711C34.1252 118.755 31.507 121.189 28.3467 122.674C25.1863 124.16 21.6413 124.622 18.2057 123.997C4.05519 121.513 1.92418 108.75 6.73045 95.2668C11.2224 82.634 21.0573 73.742 32.4022 72.0556C33.6354 72.965 34.9835 73.7073 36.4113 74.2633C30.6621 85.3553 19.7005 92.6375 13.1848 103.239ZM41.2865 103.185C48.7352 100.046 56.6494 98.1531 64.7123 97.5817C67.0119 97.4284 69.3116 97.4361 71.6112 97.4361C71.9485 97.4361 71.9562 96.8842 71.6112 96.8842C70.0474 96.7757 68.479 96.7476 66.9123 96.7999C66.5367 93.7337 61.0099 84.788 59.1318 82.3121C59.0837 82.2666 59.0209 82.24 58.9548 82.2369C58.8887 82.2339 58.8238 82.2547 58.7717 82.2956C58.7197 82.3365 58.6841 82.3947 58.6714 82.4596C58.6587 82.5246 58.6698 82.5919 58.7025 82.6494C62.4663 87.9232 65.5095 94.6382 66.1151 96.8305C59.3771 97.0835 48.9827 98.6779 41.5012 102.342C42.2064 99.7587 44.9353 89.1037 44.9966 78.579C47.1046 77.6361 48.6071 74.225 48.4308 71.933C56.3787 73.743 63.6683 77.7235 69.4879 83.4312C76.3179 90.1232 80.5032 98.7622 79.2154 108.152C78.5332 113.518 74.7234 117.673 69.0356 119.183C59.2315 121.866 49.1437 119.536 39.4621 116.531C38.5249 116.215 37.5702 115.954 36.6029 115.749C38.562 111.72 40.1304 107.513 41.2865 103.185Z" fill="black"/>
<path d="M40.911 53.8348C41.1091 53.542 41.3733 53.3 41.6822 53.1282C41.9911 52.9564 42.3362 52.8597 42.6894 52.8459C43.2489 52.8459 43.2183 52.0027 42.6894 52.0794C42.2341 52.1273 41.7957 52.2785 41.4078 52.5216C41.0199 52.7647 40.6926 53.0933 40.451 53.4822C40.2517 53.7965 40.6963 54.1414 40.911 53.8348ZM42.72 55.9581C42.4057 56.2111 42.4287 57.4912 42.904 57.4912C43.0127 57.4799 43.1143 57.432 43.1923 57.3555C43.2703 57.2789 43.32 57.1781 43.3333 57.0696C43.5096 56.4027 43.0573 55.7205 42.72 55.9581ZM42.0455 62.2898C42.0311 62.2299 41.9986 62.1759 41.9524 62.1351C41.9062 62.0943 41.8485 62.0689 41.7873 62.0621C41.726 62.0554 41.6642 62.0678 41.6102 62.0976C41.5563 62.1274 41.5128 62.1731 41.4859 62.2285C41.4092 62.3358 41.2636 62.6654 41.5855 63.3323C41.8041 63.7863 42.1813 64.1446 42.6459 64.3395C43.1105 64.5344 43.6305 64.5524 44.1075 64.3902C44.1721 64.3645 44.225 64.316 44.2562 64.2539C44.2874 64.1918 44.2948 64.1204 44.2768 64.0533C44.2588 63.9861 44.2168 63.9279 44.1588 63.8897C44.1007 63.8515 44.0306 63.8359 43.9618 63.8459C42.8733 64.0606 42.2448 63.3707 42.0455 62.2898Z" fill="black"/>
</svg>
