<svg width="154" height="154" viewBox="0 0 154 154" fill="none" xmlns="http://www.w3.org/2000/svg">
<path fill-rule="evenodd" clip-rule="evenodd" d="M66.9487 65.5079C66.8414 65.7148 66.5271 67.8074 67.7612 67.8074C67.9768 67.8079 68.1854 67.7307 68.3486 67.5899C68.5119 67.4491 68.6191 67.2542 68.6504 67.0409C68.911 64.6953 67.3779 64.703 66.9487 65.5079ZM78.0634 65.4772C78.1324 66.2897 78.2244 67.0103 79.0369 67.0103C79.2525 67.0107 79.461 66.9335 79.6243 66.7927C79.7876 66.6519 79.8947 66.457 79.926 66.2437C79.9426 65.7505 79.8884 65.2575 79.7651 64.7797C79.3205 63.9595 77.9484 64.1588 78.0634 65.4772ZM72.6977 72.8819C72.9353 72.8819 74.9973 72.7822 75.4802 72.4066C75.6258 72.2993 75.6105 72.0924 75.6105 71.9007C75.5645 69.7264 75.3544 67.5586 74.9819 65.4159C74.9819 65.3009 74.8823 65.2779 74.821 65.2932C74.7596 65.3086 74.729 65.4159 74.7366 65.5998C74.7366 66.2284 74.683 66.443 74.9053 69.9614C75.0509 72.261 74.9896 71.6171 75.0356 72.0004C74.3168 72.2637 73.5787 72.4713 72.828 72.6213C72.3297 72.7286 72.6823 72.8819 72.6977 72.8819ZM75.1199 78.1863C74.5512 78.4912 73.924 78.6715 73.2802 78.7152C73.2477 78.7152 73.2165 78.7281 73.1935 78.7511C73.1705 78.7741 73.1576 78.8053 73.1576 78.8378C73.1576 78.8703 73.1705 78.9015 73.1935 78.9245C73.2165 78.9475 73.2477 78.9605 73.2802 78.9605C73.6404 79.09 74.0251 79.1366 74.4057 79.0968C74.7863 79.0571 75.1531 78.932 75.4787 78.7309C75.8043 78.5298 76.0804 78.2578 76.2864 77.9353C76.4923 77.6127 76.6229 77.2478 76.6683 76.8678C76.6723 76.8522 76.6732 76.836 76.671 76.82C76.6687 76.8041 76.6634 76.7887 76.6552 76.7748C76.647 76.761 76.6362 76.7488 76.6233 76.7391C76.6104 76.7295 76.5957 76.7224 76.5801 76.7184C76.5645 76.7143 76.5483 76.7134 76.5323 76.7157C76.5164 76.7179 76.501 76.7233 76.4872 76.7315C76.4733 76.7397 76.4611 76.7505 76.4515 76.7634C76.4418 76.7763 76.4347 76.7909 76.4307 76.8065C76.1203 77.372 75.6687 77.8473 75.1199 78.1863ZM40.764 19.0714C42.734 25.6559 49.7017 25.334 50.5143 25.8246C50.5143 25.9012 52.1087 32.0411 52.7525 32.8843C53.1128 33.3519 53.979 33.1679 54.5539 33.0606C55.903 32.7923 57.4667 32.708 58.6088 31.7958C58.9001 31.5582 58.7315 30.5924 58.6548 30.2628C58.4109 28.8845 58.0728 27.5246 57.643 26.1925C57.474 25.7906 57.3306 25.3784 57.2137 24.9584C57.7427 24.4898 58.318 24.0763 58.9308 23.7243C59.9422 23.0353 60.8418 22.1951 61.5983 21.233C63.0619 19.0889 63.7236 16.4977 63.467 13.9143C63.2105 11.3309 62.0523 8.92038 60.1956 7.10589C54.5156 1.53321 44.2441 3.34989 40.9096 10.379C39.7675 12.8165 39.9898 16.5112 40.764 19.0714ZM58.2562 31.4279C57.2367 32.2481 55.7343 32.3554 54.4236 32.6237C54.071 32.7003 53.2355 32.9073 53.0132 32.6237C52.5794 31.9976 52.2674 31.2955 52.0933 30.5541C54.0789 30.2742 56.0209 29.7436 57.873 28.975C58.1235 29.7687 58.2527 30.5956 58.2562 31.4279ZM57.7886 28.6607C55.83 29.0258 53.9065 29.5592 52.0397 30.2551C51.8417 29.3655 51.5856 28.4897 51.2731 27.6336C53.2536 27.4262 55.1959 26.9464 57.0451 26.2078C57.3544 27.0181 57.6104 27.8477 57.8116 28.6914L57.7886 28.6607ZM41.3926 10.6166C44.6043 3.97845 54.4236 2.29974 59.7893 7.55048C61.5333 9.26105 62.6243 11.5276 62.8734 13.9577C63.1226 16.3878 62.5143 18.8285 61.1537 20.8574C59.8276 22.7278 57.1448 24.0156 56.7308 24.6901C56.5852 24.9277 56.8535 25.5333 57.0221 25.9625C56.1483 26.1312 55.1901 26.3381 54.3316 26.5298C54.1016 25.4796 53.0285 21.2407 52.6299 20.2442C52.4766 19.8456 52.3386 19.8763 51.9324 19.9913C49.6941 19.9913 47.2335 19.424 46.444 17.3161C46.3486 17.069 46.2817 16.8118 46.2447 16.5495C46.1374 15.4457 47.0112 14.158 47.9771 14.25C47.8391 15.0931 47.9771 16.7029 48.6976 17.1858C49.4181 17.6687 50.2307 16.9022 50.2307 16.2123C50.1898 15.7148 50.0281 15.2348 49.7596 14.814C49.4911 14.3932 49.1239 14.0444 48.6899 13.7977C48.8104 13.5241 48.989 13.2799 49.2133 13.0821C49.4375 12.8844 49.7021 12.7377 49.9887 12.6524C50.2753 12.5671 50.577 12.5451 50.8729 12.588C51.1688 12.6309 51.4518 12.7377 51.7024 12.9009C51.0968 14.0813 51.7024 16.7872 52.7755 16.151C53.8487 15.5147 53.4961 13.951 52.8292 13.0848C52.5072 12.6632 52.4383 12.7782 52.5992 12.6556C53.8487 11.7434 55.2668 12.8012 55.8647 14.1886C56.7232 16.0973 54.8835 18.4505 53.7184 19.1634C53.6899 19.1807 53.6695 19.2086 53.6616 19.2409C53.6537 19.2733 53.6589 19.3074 53.6762 19.3359C53.6935 19.3643 53.7214 19.3848 53.7537 19.3927C53.7861 19.4006 53.8202 19.3953 53.8487 19.378C55.2744 18.5425 57.0758 16.082 56.2556 14.0123C55.4354 11.9427 53.3734 11.1455 52.0703 12.3796C51.7422 12.1545 51.3678 12.0058 50.9746 11.9446C50.5814 11.8834 50.1795 11.9112 49.7985 12.026C49.4174 12.1407 49.067 12.3395 48.773 12.6077C48.479 12.8758 48.2489 13.2065 48.0997 13.5754C46.674 13.3914 45.4705 15.0548 45.6315 16.5649C45.7181 17.2323 45.9703 17.8674 46.3653 18.4124C46.7603 18.9573 47.2854 19.3947 47.8927 19.6847C48.6133 20.0296 51.1735 20.6581 52.1853 20.3669C52.5379 21.1334 53.818 25.6329 54.048 26.5758C50.6446 27.3423 51.3345 27.7026 51.1658 27.2043C50.9665 26.5834 50.8439 25.6713 50.6752 25.6099C46.444 24.6518 42.6267 23.9466 41.2009 18.9258C40.5034 16.4959 40.3194 12.8932 41.3926 10.6166ZM48.506 14.4033C48.7964 14.6094 49.0392 14.8755 49.2177 15.1837C49.3963 15.4918 49.5064 15.8348 49.5408 16.1893C49.5408 16.3962 49.0732 16.9558 48.7742 16.3426C48.5454 15.7234 48.464 15.0594 48.5366 14.4033H48.506ZM52.124 13.2305C52.7372 13.8284 53.1205 15.2234 52.4536 15.6297C52.2224 15.28 52.0728 14.8829 52.0157 14.4676C51.9587 14.0523 51.9957 13.6295 52.124 13.2305ZM29.1281 42.4889C32.2478 41.5154 36.0268 42.3586 37.4833 45.808C40.0051 51.649 33.3363 54.6231 33.4053 54.9297C33.5586 55.6963 33.8346 57.0377 33.9495 57.8119C33.9587 57.8769 33.9933 57.9357 34.0458 57.9752C34.0982 58.0148 34.1643 58.0318 34.2293 58.0227C34.2944 58.0135 34.3531 57.9789 34.3927 57.9265C34.4322 57.874 34.4493 57.808 34.4401 57.7429C34.3481 56.9764 34.2485 55.8726 34.1412 55.0754C35.225 54.6406 36.2278 54.0265 37.1077 53.2587C42.5194 46.8735 36.4791 38.8173 28.7601 41.3391C27.5379 41.6955 26.4569 42.4235 25.6671 43.4221C24.8773 44.4207 24.4179 45.6403 24.3526 46.9118C24.1073 49.932 26.5142 52.5382 30.4005 52.2009C30.4591 52.1906 30.5122 52.1599 30.5504 52.1144C30.5886 52.0688 30.6096 52.0112 30.6096 51.9518C30.6096 51.8923 30.5886 51.8347 30.5504 51.7891C30.5122 51.7436 30.4591 51.713 30.4005 51.7026C26.9511 51.8789 25.1038 49.403 25.4334 47.0268C25.5097 45.9829 25.9051 44.9877 26.566 44.176C27.2269 43.3643 28.1213 42.7753 29.1281 42.4889ZM86.3802 22.4902C86.4453 22.5074 86.5145 22.4982 86.5728 22.4644C86.631 22.4306 86.6734 22.3751 86.6907 22.31C86.708 22.245 86.6987 22.1757 86.6649 22.1175C86.6311 22.0593 86.5756 22.0169 86.5106 21.9996C83.1915 21.0644 82.2333 18.1286 83.3065 15.9746C83.7244 15.0126 84.4281 14.2025 85.3221 13.654C86.2162 13.1055 87.2573 12.8452 88.3042 12.9085C94.0685 13.0542 96.5981 18.3586 94.4365 22.1452C93.0031 24.7361 91.0867 25.4336 88.6338 25.7556C88.5564 25.7665 88.4846 25.8023 88.4292 25.8576C88.3739 25.9129 88.3381 25.9847 88.3272 26.0622C88.2429 26.7674 88.0589 28.1548 87.921 28.9597C87.9077 29.0237 87.9205 29.0904 87.9565 29.145C87.9924 29.1996 88.0486 29.2377 88.1126 29.251C88.1766 29.2642 88.2433 29.2514 88.2979 29.2155C88.3526 29.1795 88.3907 29.1234 88.4039 29.0593C88.5802 28.2315 88.8178 27.258 88.9788 26.4378C90.1433 26.3752 91.2888 26.116 92.3668 25.6713C94.9654 24.1382 96.5444 21.716 96.3375 18.6498C95.8546 11.4521 85.3531 8.87658 82.333 15.5837C81.1602 18.3126 82.5859 21.6316 86.3802 22.4902ZM128.969 58.4558C128.881 57.0349 128.374 55.6719 127.512 54.5388C126.683 53.606 125.672 52.8528 124.541 52.3255C123.41 51.7982 122.183 51.5079 120.935 51.4727C119.666 51.4138 118.409 51.751 117.339 52.4377C116.269 53.1243 115.439 54.1264 114.964 55.3053C113.761 58.0878 115.209 61.3303 118.988 62.2501C119.022 62.2653 119.059 62.2729 119.096 62.2724C119.133 62.2719 119.169 62.2633 119.202 62.2473C119.235 62.2312 119.265 62.2081 119.288 62.1795C119.312 62.1509 119.328 62.1175 119.337 62.0817C119.347 62.0459 119.348 62.0086 119.341 61.9723C119.334 61.936 119.319 61.9017 119.298 61.8717C119.276 61.8417 119.248 61.8168 119.216 61.7988C119.184 61.7807 119.148 61.7699 119.111 61.7672C115.815 60.7707 114.834 57.9345 115.915 55.7423C116.333 54.7803 117.036 53.9701 117.93 53.4216C118.824 52.8731 119.865 52.6129 120.912 52.6761C121.976 52.7057 123.022 52.9505 123.987 53.3958C124.953 53.8411 125.818 54.4777 126.531 55.267C127.249 56.2041 127.676 57.3317 127.758 58.5094C128.302 65.2702 121.02 65.2932 120.951 65.8298C120.859 66.5963 120.69 67.9454 120.545 68.7273C120.531 68.7913 120.544 68.858 120.58 68.9126C120.616 68.9672 120.672 69.0054 120.736 69.0186C120.8 69.0318 120.867 69.019 120.921 68.9831C120.976 68.9471 121.014 68.891 121.027 68.8269C121.211 68.0067 121.441 67.0256 121.602 66.2054C122.769 66.1399 123.916 65.8808 124.998 65.4389C127.558 63.9365 129.176 61.5526 128.969 58.4558ZM37.3606 63.6222C37.6902 62.2578 36.7014 60.8244 35.7202 60.9393C35.0839 60.8705 34.4431 60.8526 33.8039 60.8857C32.1405 61.2843 31.3587 63.4612 32.9224 64.5267C34.7161 65.7225 37.0387 64.8946 37.3606 63.6222ZM36.1725 63.4689C35.9003 63.696 35.5668 63.8374 35.2143 63.8751C33.1294 64.1664 32.6848 62.3421 34.0875 61.7442L35.7356 61.4376C36.4484 61.4989 36.6094 63.0243 36.1725 63.4306V63.4689ZM87.2847 31.8878C85.4987 31.2363 83.5671 33.2522 84.8318 34.9539C86.0966 36.6556 88.6032 36.6556 89.3237 35.5212C90.0443 34.3867 89.6073 32.6697 88.6415 32.4551C88.5572 32.4167 87.8903 32.1101 87.2847 31.8878ZM88.2506 34.9539C87.9077 35.0706 87.5404 35.0967 87.1845 35.0295C86.8286 34.9624 86.4961 34.8043 86.2193 34.5707C85.9928 34.408 85.8066 34.1956 85.675 33.9498C85.4527 33.3289 86.2499 32.6927 86.8325 32.6544L88.4882 32.892C89.1321 33.2369 88.8101 34.7393 88.2506 34.9769V34.9539ZM121.242 72.2687C121.089 72.1997 120.299 71.8701 119.893 71.7168C118.099 71.0652 116.175 73.0812 117.44 74.7829C118.705 76.4846 121.204 76.4846 121.932 75.3501C122.66 74.2156 122.216 72.4833 121.242 72.2687ZM120.851 74.8059C120.508 74.9218 120.141 74.9475 119.785 74.8803C119.429 74.8132 119.097 74.6556 118.82 74.4226C118.595 74.2547 118.41 74.0403 118.276 73.7941C118.061 73.1808 118.85 72.5446 119.433 72.5063L121.089 72.7439C121.733 73.0658 121.411 74.5606 120.851 74.8059Z" fill="black"/>
<path fill-rule="evenodd" clip-rule="evenodd" d="M114.979 114.551C113.446 107.008 107.483 95.3873 100.323 92.4208L98.8823 89.4083C98.872 89.3865 98.8571 89.3671 98.8387 89.3515C98.8202 89.3359 98.7986 89.3244 98.7754 89.3179C98.7521 89.3113 98.7277 89.3099 98.7038 89.3136C98.68 89.3173 98.6572 89.3261 98.637 89.3394L97.1039 90.3282C96.617 87.0745 95.1302 84.0529 92.8497 81.6817C94.4441 79.2211 96.9966 78.47 99.6335 78.355C101.818 78.263 103.428 78.1327 104.693 76.2623C107.199 72.5677 106.609 68.965 103.665 65.5309C99.1812 60.3032 97.4182 61.8669 95.2336 58.9771C91.079 53.55 90.1362 45.5245 84.0192 41.3469C76.2006 36.0501 71.9847 40.3197 70.3443 41.6382C67.9451 40.1817 62.5947 40.6877 60.2951 42.6576C58.3405 44.3287 55.7496 46.4903 54.7454 48.9049C52.6068 54.0023 52.8368 60.0349 49.7093 64.6571C48.9428 65.8069 47.632 66.5811 46.7045 67.6695C45.4315 69.2657 44.3485 71.0047 43.4774 72.8513C42.343 74.9976 41.4768 77.3815 42.5116 79.6044C43.899 82.5786 47.0035 85.4147 50.3149 85.2001C52.2312 85.0698 54.7684 83.92 56.5698 84.6789C57.6429 85.1234 58.0569 86.1583 58.8694 87.0244C60.709 89.0711 65.0016 89.692 67.3779 88.2739C64.764 91.6006 60.778 91.4856 53.8256 95.3183C43.1555 101.19 39.2615 107.859 38.1194 114.689C37.6825 116.813 37.3601 118.96 37.1536 121.12C36.4943 132.257 39.8747 146.377 50.8361 148.715C53.8409 149.359 57.2827 149.773 60.2568 149.029C65.8908 147.626 72.6133 143.832 77.5497 140.751C79.8493 139.317 88.3578 133.576 92.3131 132.825C92.5512 134.87 93.0669 136.874 93.8462 138.781C97.0119 145.288 102.079 149.136 109.177 147.465C113.776 146.385 115.087 141.486 115.209 136.795C117.517 131.843 115.685 118.153 114.979 114.551ZM88.4575 78.6616C89.8219 78.9145 90.757 80.1946 91.7689 81.2371C94.4441 83.9123 96.2837 86.7791 96.8356 90.4355C94.6204 91.8459 93.1793 92.7351 93.1486 92.7811C93.118 92.8271 92.0525 90.1135 91.4086 89.7839C90.4453 89.3057 89.5715 88.6652 88.8254 87.8906C88.2505 87.2544 87.5453 86.1353 87.6373 85.2921C88.0447 85.0753 88.4894 84.9375 88.948 84.8858V84.4106C86.5795 84.4796 85.7669 86.6412 85.5523 87.1241C85.399 87.469 85.1844 87.814 84.6938 87.7603C84.2032 87.7066 84.0269 87.1394 84.2109 86.6335C84.3948 86.1276 84.8394 83.9047 87.9745 83.4217C88.0138 83.4162 88.0516 83.403 88.0857 83.3829C88.1199 83.3627 88.1497 83.336 88.1736 83.3044C88.1974 83.2727 88.2148 83.2366 88.2247 83.1982C88.2346 83.1599 88.2369 83.1199 88.2313 83.0806C88.2258 83.0414 88.2126 83.0036 88.1924 82.9694C88.1723 82.9353 88.1456 82.9054 88.114 82.8816C88.0823 82.8577 88.0462 82.8404 88.0078 82.8305C87.9694 82.8206 87.9295 82.8183 87.8902 82.8238C87.2341 82.9073 86.5981 83.1071 86.0122 83.4141C85.4855 83.6712 85.0181 84.035 84.6394 84.4823C84.2606 84.9296 83.979 85.4507 83.8123 86.0126C83.4443 87.0628 82.1566 86.5952 82.4632 85.6907C82.7717 84.8108 83.2308 83.9912 83.8199 83.2684C84.4742 82.6448 85.26 82.1759 86.1195 81.8963C86.7941 81.6204 87.369 81.7507 87.5223 81.5284C87.6756 81.3061 87.3153 80.5626 87.1314 80.3403C86.1425 79.1598 83.2987 80.1793 82.2102 78.8609C81.5127 77.9947 82.9768 77.964 83.567 77.8874C85.2227 77.7034 86.7941 78.3473 88.4575 78.6616ZM91.2706 97.6562C89.0794 98.3704 86.8441 98.9414 84.5788 99.3656C85.3453 95.004 85.8666 91.2633 85.7899 89.9066C87.5759 90.2515 89.6226 90.4968 91.8608 90.8647C92.4664 91.8689 92.796 92.7121 92.9417 92.9497L91.4546 93.8925C91.3779 93.9922 91.3933 93.5783 91.2706 97.6562ZM82.9461 119.801C83.2855 121.273 83.5263 122.766 83.6666 124.27C80.5239 124.071 78.1246 124.109 76.9442 124.063C76.9902 121.909 77.0131 121.242 77.0515 120.79C78.986 120.3 80.9575 119.969 82.9461 119.801ZM70.8886 100.922C75.2371 100.953 79.5798 100.599 83.8659 99.8638C82.5015 107.223 80.4242 116.068 79.4431 117.839C77.1894 111.691 77.4194 111.668 70.8886 100.922ZM80.0869 117.739C81.3287 114.957 83.2144 106.655 84.4715 99.7412C86.7595 99.3123 89.0158 98.7284 91.2246 97.9935C90.987 106.272 90.918 116.605 91.4163 124.906C89.9599 124.776 87.8442 124.592 85.7899 124.431C85.6596 123.189 85.146 118.866 84.7091 117.732C84.5941 117.425 84.4562 117.302 83.9426 117.287C82.6607 117.343 81.3848 117.494 80.1253 117.739H80.0869ZM82.8235 88.4962C82.0471 88.0423 81.4269 87.3634 81.0451 86.5492C81.4 86.6989 81.7701 86.8094 82.1489 86.8788C82.2926 87.0406 82.478 87.1597 82.6848 87.2233C82.8916 87.2868 83.112 87.2923 83.3217 87.2391C83.6666 87.1317 83.4443 87.0858 83.6283 87.5687C83.699 87.7632 83.818 87.9366 83.9742 88.0724C84.1303 88.2082 84.3185 88.302 84.521 88.3449C84.7235 88.3879 84.9335 88.3785 85.1314 88.3178C85.3293 88.2571 85.5084 88.147 85.6519 87.9979C85.9509 87.7296 85.9739 87.4077 86.3342 86.7178C86.6868 86.6488 87.0317 86.5569 87.369 86.4572C88.2812 88.8488 91.1403 90.0062 91.3396 90.1825C87.9745 89.6843 84.9927 89.37 82.8618 88.4962H82.8235ZM68.1291 87.5763C69.9687 85.4454 69.5931 83.92 67.6998 82.4099C63.8671 79.4051 64.3424 80.21 62.7327 76.8526C60.8394 71.4025 62.4721 62.8174 63.8748 57.2294C64.2581 55.6963 66.872 54.0559 68.7729 54.3012C71.4098 54.6385 70.306 56.0259 72.5596 56.8155C72.9508 56.9298 73.3555 56.9917 73.7631 56.9994C73.7872 57.007 73.8126 57.0097 73.8378 57.0074C73.863 57.0052 73.8876 56.9979 73.91 56.9862C73.9324 56.9745 73.9523 56.9584 73.9685 56.939C73.9847 56.9195 73.997 56.8971 74.0045 56.873C74.0121 56.8488 74.0148 56.8234 74.0125 56.7982C74.0102 56.773 74.003 56.7484 73.9913 56.726C73.9795 56.7036 73.9635 56.6837 73.9441 56.6675C73.9246 56.6513 73.9022 56.639 73.878 56.6315C72.6825 55.9144 71.5805 55.0519 70.5973 54.0636C71.0649 52.155 72.253 51.1125 74.4836 51.0971C76.0167 51.0971 77.2278 52.2623 78.3162 53.2588C79.6347 54.4622 81.0528 57.7123 80.9454 59.4983C80.703 61.5678 81.1881 63.6573 82.3175 65.4083C83.0841 66.742 84.5252 67.8995 85.3837 69.0263C85.8589 69.6549 85.583 72.4604 85.307 73.6945C84.9467 74.7753 84.1802 76.8372 84.0039 77.3048C80.7998 77.4198 80.9378 79.1368 82.4708 79.8727C81.0374 81.5897 77.5344 83.4984 80.0409 85.9053C80.5775 87.0321 81.436 88.5728 82.5858 89.0404C83.4017 89.3711 84.2458 89.6277 85.1077 89.8069C85.2763 90.9951 84.7244 94.9274 83.8813 99.5035C79.482 100.235 75.0259 100.571 70.5666 100.508C67.7994 95.9775 65.0476 91.6849 64.3501 90.9951C65.8988 90.2077 67.2147 89.0292 68.1674 87.5763H68.1291ZM62.9013 91.6159C64.4344 91.041 63.6679 91.1407 64.0358 91.4243C64.4037 91.7079 66.9333 95.7169 69.8691 100.477C66.389 100.423 62.4721 100.163 60.9927 99.9941C61.4373 99.6415 60.2875 93.5859 59.8429 92.8194C60.9543 92.3748 61.9815 91.9839 62.9396 91.6159H62.9013ZM59.2756 93.057C59.9059 95.3141 60.3343 97.6228 60.5557 99.9558C57.2482 99.4817 54.0037 98.6411 50.8821 97.4492C53.5571 95.7383 56.3788 94.2684 59.314 93.057H59.2756ZM59.9732 148.477C57.0987 149.198 53.7336 148.776 50.8361 148.155C46.3059 147.182 43.1708 144.154 41.1319 140.275C37.8894 134.143 36.9236 125.029 37.9124 118.644C38.1117 117.364 38.3647 116.099 38.5793 114.811C39.7981 107.506 44.2363 102.002 50.4299 97.8402C56.5085 100.071 60.5941 100.853 70.145 100.906C76.7602 111.638 76.9058 112.711 78.7992 117.962C78.2166 118.069 75.5184 118.613 75.0585 118.989C74.8745 119.134 74.8745 119.426 75.0585 124.033C68.0831 124.171 61.261 125.259 54.8451 129.398C54.0786 123.872 54.9601 122.201 56.7461 119.035C59.5516 114.06 59.0457 113.14 57.275 110.312C56.9831 109.93 56.7742 109.491 56.6618 109.024C56.6618 108.84 55.8952 108.587 56.976 110.488C58.5091 113.278 58.923 113.937 56.2095 118.728C54.2242 122.239 53.4117 124.04 54.6075 129.559C54.0709 129.919 53.4577 130.326 52.8674 130.801C51.9657 131.436 51.1195 132.146 50.3379 132.924C50.3226 132.954 50.3197 132.988 50.3298 133.02C50.3399 133.051 50.3621 133.078 50.3915 133.093C50.421 133.108 50.4553 133.111 50.487 133.101C50.5186 133.091 50.5449 133.069 50.5602 133.039C50.7978 132.618 54.7608 129.973 55.8262 129.429C61.7745 126.432 68.3514 123.841 79.1211 124.554C78.9854 129.111 79.4572 133.666 80.5239 138.098C74.9895 141.594 67.1249 146.699 60.0115 148.477H59.9732ZM80.9991 137.792C80.0143 133.469 79.5791 129.039 79.7037 124.607C91.3396 125.374 87.6909 125.129 91.4469 125.374C91.5849 127.612 91.7919 130.042 92.0985 132.273C89.0937 132.832 83.6896 136.128 81.0374 137.792H80.9991ZM108.855 146.913C102.086 148.516 97.2802 144.821 94.2294 138.566C90.8567 131.667 91.4163 101.703 91.6079 94.0688L98.614 89.7303C108.073 110.158 109.207 112.09 111.331 118.858C114.075 127.482 117.693 144.875 108.893 146.913H108.855ZM115.033 135.186C114.856 131.081 114.223 127.009 113.147 123.044C110.717 113.592 108.088 108.855 100.814 93.5629L101.029 93.448C107.452 96.882 112.894 107.544 114.32 114.666C115.102 118.383 116.597 130.54 115.071 135.186H115.033Z" fill="black"/>
</svg>
